<?xml version="1.0" encoding="UTF-8" standalone="no"?>
<!-- Created with Inkscape (http://www.inkscape.org/) -->
<svg
   xmlns:dc="http://purl.org/dc/elements/1.1/"
   xmlns:cc="http://creativecommons.org/ns#"
   xmlns:rdf="http://www.w3.org/1999/02/22-rdf-syntax-ns#"
   xmlns:svg="http://www.w3.org/2000/svg"
   xmlns="http://www.w3.org/2000/svg"
   xmlns:sodipodi="http://sodipodi.sourceforge.net/DTD/sodipodi-0.dtd"
   xmlns:inkscape="http://www.inkscape.org/namespaces/inkscape"
   width="184"
   height="184"
   id="svg2"
   sodipodi:version="0.32"
   inkscape:version="0.46"
   version="1.0"
   sodipodi:docbase="/home/ciobi/cpp/Mp3Utils/MP3Diags/src/images"
   sodipodi:docname="logo.svg"
   inkscape:output_extension="org.inkscape.output.svg.inkscape">
  <defs
     id="defs4">
    <inkscape:perspective
       sodipodi:type="inkscape:persp3d"
       inkscape:vp_x="0 : 92 : 1"
       inkscape:vp_y="0 : 1000 : 0"
       inkscape:vp_z="184 : 92 : 1"
       inkscape:persp3d-origin="92 : 61.333333 : 1"
       id="perspective22" />
    <clipPath
       clipPathUnits="userSpaceOnUse"
       id="clipPath2200">
      <path
         style="fill:none;fill-rule:evenodd;stroke:#000000;stroke-width:1px;stroke-linecap:butt;stroke-linejoin:miter;stroke-opacity:1"
         d="M -974.28571,75.219323 L 591.42857,75.219323 L 591.42857,1200.9336 L -974.28571,1200.9336 L -974.28571,75.219323 z "
         id="path2202" />
    </clipPath>
    <clipPath
       clipPathUnits="userSpaceOnUse"
       id="clipPath2208">
      <path
         style="fill:none;fill-rule:evenodd;stroke:#000000;stroke-width:1px;stroke-linecap:butt;stroke-linejoin:miter;stroke-opacity:1"
         d="M -965.71429,75.219323 L 580,75.219323 L 580,1200.9336 L -965.71429,1200.9336 L -965.71429,75.219323 z "
         id="path2210" />
    </clipPath>
  </defs>
  <sodipodi:namedview
     id="base"
     pagecolor="#ffffff"
     bordercolor="#666666"
     borderopacity="1.0"
     gridtolerance="10000"
     guidetolerance="10"
     objecttolerance="10"
     inkscape:pageopacity="0.0"
     inkscape:pageshadow="2"
     inkscape:zoom="2.8"
     inkscape:cx="191.13664"
     inkscape:cy="60.93956"
     inkscape:document-units="px"
     inkscape:current-layer="layer1"
     showgrid="false"
     showguides="true"
     inkscape:guide-bbox="true"
     width="184px"
     height="184px"
     inkscape:window-width="1592"
     inkscape:window-height="1098"
     inkscape:window-x="0"
     inkscape:window-y="0" />
  <metadata
     id="metadata7">
    <rdf:RDF>
      <cc:Work
         rdf:about="">
        <dc:format>image/svg+xml</dc:format>
        <dc:type
           rdf:resource="http://purl.org/dc/dcmitype/StillImage" />
      </cc:Work>
    </rdf:RDF>
  </metadata>
  <g
     inkscape:label="Layer 1"
     inkscape:groupmode="layer"
     id="layer1"
     transform="translate(731.90603,-336.5424)">
    <g
       id="g2311"
       transform="matrix(1.2959182,0,0,1.2092152,-80.048211,-110.14351)"
       style="fill:#e6e6e6">
      <rect
         style="fill:#e6e6e6;fill-opacity:1;stroke:none;stroke-width:21.10000038;stroke-linecap:square;stroke-linejoin:miter;stroke-miterlimit:4;stroke-dasharray:none;stroke-dashoffset:0;stroke-opacity:1"
         id="rect2313"
         width="140"
         height="100.00002"
         x="-501.90604"
         y="395.54239" />
      <path
         sodipodi:type="arc"
         style="fill:#e6e6e6;fill-opacity:1;stroke:none;stroke-width:21.10000038;stroke-linecap:square;stroke-linejoin:miter;stroke-miterlimit:4;stroke-dasharray:none;stroke-dashoffset:0;stroke-opacity:1"
         id="path2315"
         sodipodi:cx="264.10715"
         sodipodi:cy="215.42857"
         sodipodi:rx="38.75"
         sodipodi:ry="28.214285"
         d="M 283.48215,239.86286 A 38.75,28.214285 0 0 1 244.73215,239.86286"
         transform="matrix(3.6129035,0,0,2.2841675,-1386.0997,-52.344552)"
         sodipodi:start="1.0471976"
         sodipodi:end="2.0943951"
         sodipodi:open="true" />
      <path
         sodipodi:open="true"
         sodipodi:end="2.0943951"
         sodipodi:start="1.0471976"
         transform="matrix(-3.6129035,0,0,-2.2841675,522.28761,943.42935)"
         d="M 283.48215,239.86286 A 38.75,28.214285 0 0 1 244.73215,239.86286"
         sodipodi:ry="28.214285"
         sodipodi:rx="38.75"
         sodipodi:cy="215.42857"
         sodipodi:cx="264.10715"
         id="path2317"
         style="fill:#e6e6e6;fill-opacity:1;stroke:none;stroke-width:21.10000038;stroke-linecap:square;stroke-linejoin:miter;stroke-miterlimit:4;stroke-dasharray:none;stroke-dashoffset:0;stroke-opacity:1"
         sodipodi:type="arc" />
    </g>
    <path
       sodipodi:type="arc"
       style="fill:#800000;fill-opacity:1;stroke:none;stroke-width:21.10000038;stroke-linecap:square;stroke-linejoin:miter;stroke-miterlimit:4;stroke-dasharray:none;stroke-dashoffset:0;stroke-opacity:1"
       id="path2302"
       sodipodi:cx="297.14285"
       sodipodi:cy="232.21428"
       sodipodi:rx="0"
       sodipodi:ry="2.8571429"
       d="M 297.14285,233.64285 A 0,2.8571429 0 0 1 297.14285,233.64285"
       transform="translate(-731.90603,336.5424)"
       sodipodi:start="0.52359878"
       sodipodi:end="2.6179939"
       sodipodi:open="true" />
    <g
       id="g2306"
       transform="matrix(1.1785714,0,0,1.060642,-131.44537,-43.44719)">
      <rect
         y="395.54239"
         x="-501.90604"
         height="100.00002"
         width="140"
         id="rect2286"
         style="fill:#800000;fill-opacity:1;stroke:none;stroke-width:21.10000038;stroke-linecap:square;stroke-linejoin:miter;stroke-miterlimit:4;stroke-dasharray:none;stroke-dashoffset:0;stroke-opacity:1" />
      <path
         sodipodi:open="true"
         sodipodi:end="2.0943951"
         sodipodi:start="1.0471976"
         transform="matrix(3.6129035,0,0,2.2841675,-1386.0997,-52.344552)"
         d="M 283.48215,239.86286 A 38.75,28.214285 0 0 1 244.73215,239.86286"
         sodipodi:ry="28.214285"
         sodipodi:rx="38.75"
         sodipodi:cy="215.42857"
         sodipodi:cx="264.10715"
         id="path2300"
         style="fill:#800000;fill-opacity:1;stroke:none;stroke-width:21.10000038;stroke-linecap:square;stroke-linejoin:miter;stroke-miterlimit:4;stroke-dasharray:none;stroke-dashoffset:0;stroke-opacity:1"
         sodipodi:type="arc" />
      <path
         sodipodi:type="arc"
         style="fill:#800000;fill-opacity:1;stroke:none;stroke-width:21.10000038;stroke-linecap:square;stroke-linejoin:miter;stroke-miterlimit:4;stroke-dasharray:none;stroke-dashoffset:0;stroke-opacity:1"
         id="path2304"
         sodipodi:cx="264.10715"
         sodipodi:cy="215.42857"
         sodipodi:rx="38.75"
         sodipodi:ry="28.214285"
         d="M 283.48215,239.86286 A 38.75,28.214285 0 0 1 244.73215,239.86286"
         transform="matrix(-3.6129035,0,0,-2.2841675,522.28761,943.42935)"
         sodipodi:start="1.0471976"
         sodipodi:end="2.0943951"
         sodipodi:open="true" />
    </g>
    <path
       style="font-size:82.37410736px;font-style:normal;font-weight:bold;fill:#ffff00;fill-opacity:1;stroke:none;stroke-width:1px;stroke-linecap:butt;stroke-linejoin:miter;stroke-opacity:1;font-family:Tahoma"
       d="M -706.16909,390.0008 L -691.91737,390.0008 L -682.02843,430.16738 L -672.08131,390.0008 L -657.85868,390.0008 L -657.85868,465.05548 L -668.44567,465.05548 L -668.44567,410.1595 L -678.45096,450.62769 L -685.54772,450.62769 L -695.55301,410.1595 L -695.55301,465.05548 L -706.16909,465.05548 L -706.16909,390.0008 M -646.83541,390.0008 L -628.25002,390.0008 C -622.72387,390.00088 -618.48714,392.12902 -615.5398,396.38522 C -612.57316,400.60806 -611.08982,406.64058 -611.08977,414.48281 C -611.08982,422.35865 -612.57316,428.42468 -615.5398,432.68093 C -618.48714,436.90372 -622.72387,439.0151 -628.25002,439.01507 L -635.63764,439.01507 L -635.63764,465.05548 L -646.83541,465.05548 L -646.83541,390.0008 M -635.63764,404.02643 L -635.63764,424.98946 L -629.4425,424.98946 C -627.27083,424.98949 -625.5936,424.08462 -624.41078,422.27482 C -623.22801,420.4316 -622.63661,417.83425 -622.63658,414.48281 C -622.63661,411.13145 -623.22801,408.55088 -624.41078,406.74106 C -625.5936,404.93137 -627.27083,404.02649 -629.4425,404.02643 L -635.63764,404.02643 M -580.92849,424.58729 C -578.00062,425.89437 -575.78045,428.17333 -574.268,431.42415 C -572.73621,434.64153 -571.97031,438.74699 -571.97027,443.74056 C -571.97031,451.18068 -573.61846,456.84455 -576.91473,460.73217 C -580.21108,464.58629 -585.01982,466.51334 -591.34096,466.51334 C -593.57084,466.51334 -595.8104,466.19495 -598.05963,465.55819 C -600.2895,464.95494 -602.49997,464.0333 -604.69105,462.79328 L -604.69105,447.86278 C -602.59693,449.67255 -600.52218,451.04663 -598.46683,451.98501 C -596.39209,452.8899 -594.35614,453.34234 -592.35895,453.34233 C -589.39228,453.34234 -587.12364,452.45421 -585.55303,450.67797 C -583.96306,448.90173 -583.16807,446.35467 -583.16805,443.03676 C -583.16807,439.61835 -583.98245,437.03778 -585.6112,435.29503 C -587.22059,433.51881 -589.60557,432.63069 -592.76614,432.63065 L -597.24525,432.63065 L -597.24525,420.16343 L -592.53346,420.16343 C -589.72192,420.16348 -587.62779,419.40941 -586.25107,417.90124 C -584.8744,416.35964 -584.18605,414.03041 -584.18603,410.91357 C -584.18605,408.03141 -584.85501,405.80273 -586.1929,404.22751 C -587.53083,402.65241 -589.42137,401.86483 -591.8645,401.86477 C -593.66779,401.86483 -595.49046,402.21674 -597.3325,402.92047 C -599.17457,403.62432 -601.00694,404.66325 -602.8296,406.03727 L -602.8296,391.86084 C -600.61914,390.78846 -598.42806,389.98413 -596.25636,389.44783 C -594.08468,388.91167 -591.95178,388.64357 -589.85762,388.64349 C -584.21514,388.64357 -579.99779,390.25223 -577.20559,393.4695 C -574.39406,396.65342 -572.98829,401.46267 -572.98825,407.8973 C -572.98829,412.28769 -573.65725,415.89045 -574.99512,418.70557 C -576.33307,421.48728 -578.31086,423.44786 -580.92849,424.58729"
       id="text2282" />
  </g>
</svg>
