/* XPM */
static char * mp3_xpm[] = {
"32 32 3 1",
" 	c None",
".	c #61001F",
"+	c #FFFFFF",
"                                ",
"                                ",
"                                ",
"                                ",
"        ................        ",
"   ..........................   ",
"................................",
"................................",
"................................",
"..++..++..++...+++++.....++++...",
"..++.+++.+++...++++++...++++++..",
"..++++++++++...++...++..++..++..",
"..+++.+++.++...++...++......++..",
"..++..++..++...++...++......++..",
"..++..++..++...++...++......++..",
"..++..++..++...++...++...++++...",
"..++..++..++...++++++....++++...",
"..++..++..++...+++++........++..",
"..++..++..++...++...........++..",
"..++..++..++...++...........++..",
"..++..++..++...++.......++..++..",
"..++..++..++...++.......++++++..",
"..++..++..++...++........++++...",
"................................",
"................................",
"................................",
"   ..........................   ",
"        ................        ",
"                                ",
"                                ",
"                                ",
"                                "};
