<?xml version="1.0" encoding="UTF-8" standalone="no"?>
<!-- Created with Inkscape (http://www.inkscape.org/) -->
<svg
   xmlns:dc="http://purl.org/dc/elements/1.1/"
   xmlns:cc="http://web.resource.org/cc/"
   xmlns:rdf="http://www.w3.org/1999/02/22-rdf-syntax-ns#"
   xmlns:svg="http://www.w3.org/2000/svg"
   xmlns="http://www.w3.org/2000/svg"
   xmlns:sodipodi="http://sodipodi.sourceforge.net/DTD/sodipodi-0.dtd"
   xmlns:inkscape="http://www.inkscape.org/namespaces/inkscape"
   width="171"
   height="117.83302"
   id="svg2456"
   sodipodi:version="0.32"
   inkscape:version="0.45.1"
   sodipodi:docbase="/home/ciobi/cpp/Mp3Utils/Mp3TagDoctorQt4/src/images"
   sodipodi:docname="musicbrainz_logo1.svg"
   inkscape:output_extension="org.inkscape.output.svg.inkscape"
   version="1.0">
  <defs
     id="defs2458" />
  <sodipodi:namedview
     id="base"
     pagecolor="#ffffff"
     bordercolor="#666666"
     borderopacity="1.0"
     gridtolerance="10000"
     guidetolerance="10"
     objecttolerance="10"
     inkscape:pageopacity="0.0"
     inkscape:pageshadow="2"
     inkscape:zoom="3.959798"
     inkscape:cx="103.73576"
     inkscape:cy="96.628015"
     inkscape:document-units="px"
     inkscape:current-layer="layer1"
     inkscape:window-width="1600"
     inkscape:window-height="1098"
     inkscape:window-x="0"
     inkscape:window-y="33"
     height="173px"
     width="173px" />
  <metadata
     id="metadata2461">
    <rdf:RDF>
      <cc:Work
         rdf:about="">
        <dc:format>image/svg+xml</dc:format>
        <dc:type
           rdf:resource="http://purl.org/dc/dcmitype/StillImage" />
      </cc:Work>
    </rdf:RDF>
  </metadata>
  <g
     inkscape:label="Layer 1"
     inkscape:groupmode="layer"
     id="layer1"
     transform="translate(-252.90555,-356.05028)">
    <path
       d="M 337.64155,383.47228 L 337.64155,450.75928 L 385.40655,450.75928 C 385.40655,450.75928 389.40655,439.83728 389.40655,436.45228 C 389.40655,433.06928 389.40655,426.90528 389.40655,426.90528 C 389.40655,426.90528 391.07255,422.16928 391.07255,416.07728 C 391.07255,409.98728 388.84155,398.48328 383.42655,396.45228 C 383.42655,396.45228 367.86255,375.47328 349.59055,378.18128 C 349.59055,378.18128 338.55155,377.93428 337.64155,383.47228 z "
       id="path3"
       style="fill:#ffba58" />
    <g
       transform="translate(209.84255,172.16228)"
       id="g5">
      <path
         d="M 180.977,254.474 C 180.758,257.619 181.196,264.357 180.539,266.38 C 179.883,268.4 178.131,274.241 177.258,276.263 C 176.951,276.972 176.674,277.82 176.391,278.704 L 174.387,278.587 C 174.514,278.257 174.657,277.931 174.85,277.61 C 175.944,275.815 175.727,273.118 175.727,273.118 C 175.727,273.118 177.915,266.604 178.35,264.583 C 178.789,262.562 177.696,256.944 177.914,255.37 C 178.135,253.8 178.789,252.899 179.883,249.755 C 180.977,246.609 179.444,242.792 179.227,241.442 C 179.008,240.096 178.571,235.153 178.131,233.805 C 177.695,232.455 175.07,228.412 174.904,227.457 C 174.74,226.502 170.494,225.32 170.494,225.32 C 170.273,223.074 168.943,221.447 168.943,221.447 C 168.943,219.201 161.285,212.91 161.285,212.91 C 158.879,211.113 147.939,207.295 145.096,206.619 C 142.249,205.947 140.718,207.744 140.718,207.744 C 136.997,205.947 133.716,207.744 131.529,209.092 C 129.342,210.44 129.123,212.686 129.123,212.686 C 127.809,214.26 128.029,210.665 128.029,210.665 C 128.029,210.665 128.902,206.173 132.185,205.05 C 135.466,203.925 140.937,204.599 140.937,204.599 C 148.377,203.029 160.192,208.869 163.694,211.564 C 167.194,214.261 174.85,223.919 174.85,223.919 C 174.85,223.919 177.258,225.942 179.444,230.659 C 181.633,235.378 182.071,245.487 181.852,247.509 C 181.633,249.531 181.195,251.327 180.977,254.474 z "
         id="path7" />
      <g
         id="g9">
        <path
           d="M 148.453,210.265 C 147.818,209.177 145.283,211.351 143.382,211.351 C 141.48,211.351 137.993,210.046 135.773,210.482 C 133.554,210.918 130.701,212.658 130.068,214.179 C 129.433,215.7 131.019,221.355 132.922,221.79 C 132.922,221.79 129.75,225.27 131.334,226.575 C 132.922,227.88 133.555,226.575 133.555,225.923 C 133.555,225.271 133.237,223.53 134.506,223.095 C 135.774,222.661 137.36,221.138 137.36,221.138 C 137.36,221.138 134.823,221.138 133.555,219.833 C 132.285,218.528 132.92,216.136 133.555,215.048 C 134.188,213.96 135.772,212.003 137.36,212.003 C 138.944,212.003 142.114,213.308 144.336,213.091 C 146.551,212.874 149.088,211.353 148.453,210.265 z "
           id="path11" />
        <path
           d="M 153.525,216.571 C 153.525,216.571 157.011,220.485 153.525,225.051 C 150.039,229.619 150.355,227.662 150.355,227.662 L 151.623,229.402 C 151.623,229.402 154.158,225.705 156.379,225.922 C 158.598,226.139 161.451,228.096 162.402,231.36 C 163.353,234.622 161.134,237.233 158.281,237.667 C 155.427,238.103 144.648,237.015 144.648,237.015 C 144.648,237.015 145.601,237.667 145.283,238.755 C 144.967,239.841 144.334,241.148 144.334,241.148 C 144.334,241.148 146.869,238.972 153.209,239.189 C 159.549,239.408 161.77,240.494 164.305,244.627 C 166.84,248.76 165.254,254.848 163.987,256.371 C 162.72,257.894 157.012,258.33 156.38,259.851 C 155.748,261.372 157.648,262.896 157.966,263.982 C 158.282,265.07 157.015,265.941 157.015,265.941 C 157.015,265.941 160.501,264.418 163.036,264.636 C 165.573,264.853 170.329,267.245 170.329,267.245 C 170.329,267.245 169.376,267.681 169.694,268.333 C 170.012,268.985 170.645,269.638 170.329,270.29 C 170.013,270.942 169.061,271.376 169.061,271.376 C 169.061,271.376 170.645,271.595 171.596,270.29 C 172.547,268.985 170.645,268.767 171.28,268.114 C 171.913,267.462 173.182,267.68 173.182,267.68 C 173.182,267.68 172.229,267.461 170.645,265.504 C 169.061,263.547 168.426,262.459 166.207,262.459 C 163.986,262.459 161.451,262.676 161.451,262.676 C 161.451,262.676 159.232,261.807 160.183,260.502 C 161.134,259.197 168.425,258.326 168.425,258.326 C 168.425,258.326 166.206,257.021 166.206,255.935 C 166.206,254.847 167.79,252.671 170.644,251.15 C 173.498,249.627 175.716,247.234 175.716,242.668 C 175.716,238.102 176.925,237.061 178.825,235.32 L 178.159,232.32 C 178.159,232.32 176.35,236.361 174.448,237.666 L 169.692,235.49 C 169.692,235.49 170.643,238.318 173.18,239.406 C 173.18,239.406 175.08,243.103 173.496,245.713 C 171.91,248.322 167.789,250.279 167.789,250.279 C 167.789,250.279 166.521,243.972 165.887,242.668 C 165.254,241.363 163.985,240.059 163.668,239.188 C 163.352,238.319 165.572,232.881 165.254,231.141 C 164.936,229.403 162.4,224.182 157.645,223.746 C 157.646,223.747 157.012,216.136 153.525,216.571 z "
           id="path13" />
        <path
           d="M 146.551,227.444 C 146.551,227.444 149.088,226.794 151.307,227.88 C 153.526,228.968 155.112,232.23 153.209,233.97 C 153.209,233.97 152.258,234.622 151.307,233.534 C 151.307,233.534 151.623,228.968 149.721,228.532 C 147.819,228.096 146.551,227.444 146.551,227.444 z "
           id="path15" />
        <path
           d="M 149.088,221.573 C 149.088,221.573 145.602,220.052 142.431,220.921 C 139.261,221.79 137.359,225.704 137.359,225.704 C 137.359,225.704 135.773,222.878 138.627,220.704 C 141.481,218.528 146.235,219.833 148.454,220.052 C 150.672,220.269 150.99,220.485 149.088,221.573 z "
           id="path17" />
        <path
           d="M 144.967,219.833 C 144.967,219.833 144.016,218.093 145.283,217.659 C 146.551,217.223 148.137,216.788 147.502,216.136 C 146.869,215.484 143.699,216.788 142.747,218.745 C 141.796,220.704 141.796,220.704 141.796,220.704 L 144.967,219.833 z "
           id="path19" />
        <path
           d="M 142.431,228.751 C 142.431,228.751 136.408,234.187 136.408,239.841 C 136.408,245.497 139.262,250.064 141.48,250.064 C 143.7,250.064 143.702,248.107 145.284,248.541 C 146.87,248.977 149.089,250.936 146.87,251.369 C 144.649,251.805 142.432,252.674 140.529,251.805 C 138.627,250.934 136.408,249.846 135.138,247.889 C 133.872,245.932 134.189,241.801 133.872,239.625 C 133.554,237.449 137.673,229.838 139.261,228.752 C 140.845,227.663 142.431,226.792 142.431,228.751 z "
           id="path21" />
        <path
           d="M 156.063,246.149 C 156.063,246.149 153.526,245.713 152.575,244.626 C 151.624,243.54 151.309,244.845 151.942,247.019 C 152.575,249.193 152.893,252.673 152.258,254.197 C 151.623,255.718 148.77,259.851 144.967,259.416 C 141.161,258.98 139.894,257.895 138.943,256.59 C 137.992,255.283 136.091,255.067 135.773,256.371 C 135.457,257.676 136.722,259.199 137.359,260.068 C 137.992,260.937 137.675,260.937 139.578,261.589 C 141.48,262.243 145.284,263.112 148.454,262.025 C 151.624,260.938 154.477,256.154 154.477,254.63 C 154.477,253.108 155.111,248.323 156.063,246.149 z "
           id="path23" />
      </g>
      <path
         d="M 178.826,265.321 C 178.826,265.321 178.482,257.077 176.148,255.411 C 173.814,253.745 173.14,253.993 173.068,253.274 C 173.013,252.719 172.959,252.526 174.623,252.581 C 175.955,252.626 179.494,254.987 179.494,254.987 L 178.826,265.321 z "
         id="path25" />
      <path
         d="M 151.16,207.987 C 151.16,207.987 154.16,208.987 153.494,210.653 C 152.826,212.321 152.828,212.987 154.16,212.987 C 155.494,212.987 156.16,210.987 157.826,211.653 C 159.494,212.321 158.16,214.987 159.826,215.321 C 161.494,215.653 162.16,215.319 163.16,215.653 C 164.16,215.987 167.826,218.653 167.494,219.987 C 167.16,221.319 163.826,217.987 162.826,218.653 C 161.826,219.321 160.16,220.319 161.494,220.987 C 162.826,221.653 166.826,221.653 168.494,223.321 C 170.16,224.987 170.586,225.934 171.494,224.987 C 172.443,223.993 169.494,217.987 167.494,216.321 C 165.494,214.653 154.494,207.319 151.16,207.987 z "
         id="path27" />
      <path
         d="M 172.324,236.685 C 172.324,236.685 174.013,237.39 174.529,237.203 C 175.047,237.014 176.359,235.842 177.017,234.574 C 177.673,233.306 177.392,232.32 177.111,231.664 L 178.519,233.072 L 179.271,238.187 L 178.847,237.812 C 178.847,237.812 178.706,236.544 178.238,236.591 C 177.77,236.638 176.736,237.53 176.736,237.53 L 173.732,237.952 L 172.277,237.106 L 172.324,236.685 z "
         id="path29" />
      <path
         d="M 176.592,253.274 C 176.592,253.274 177.647,253.829 178.117,253.608 C 178.59,253.385 178.783,252.608 178.783,252.608 L 178.367,254.717 L 177.258,254.717 L 176.592,253.274 z "
         id="path31" />
      <path
         d="M 137.493,255.821 C 136.624,256.342 135.8,256.751 135.968,257.251 C 136.134,257.751 137.493,270.987 143.494,271.321 C 149.494,271.653 154.66,269.821 157.66,271.821 C 160.66,273.821 157.326,275.653 157.326,275.653 C 157.326,275.653 156.992,277.987 159.66,276.153 C 159.66,276.153 160.492,276.653 160.66,276.153 C 160.826,275.653 160.994,272.155 159.494,271.321 C 157.994,270.487 155.826,269.821 154.826,269.153 C 153.826,268.487 146.99,269.913 145.156,269.585 C 141.313,268.894 141.577,265.556 140.077,263.056 C 138.577,260.556 138.325,255.321 137.493,255.821 z "
         id="path33" />
      <path
         d="M 176.826,269.653 C 176.826,269.653 175.494,273.321 173.494,273.321 C 173.494,273.321 176.16,274.321 175.826,275.653 C 175.494,276.987 176.826,269.653 176.826,269.653 z "
         id="path35" />
      <path
         d="M 159.326,274.999 C 159.326,274.999 162.248,274.106 164.58,274.202 C 166.914,274.296 167.918,276.288 167.918,276.288 C 167.918,276.288 165.486,275.302 164.16,275.321 C 162.832,275.341 160.484,276.344 160.484,276.344 L 159.326,274.999 z "
         id="path37" />
      <path
         d="M 144.059,275.64 C 144.059,275.64 142.511,272.466 139.511,272.279 C 136.511,272.092 136.952,272.072 135.952,271.884 C 134.952,271.696 133.368,268.466 132.306,268.216 C 131.244,267.966 130.868,267.591 130.431,267.778 C 129.994,267.965 130.243,268.466 130.494,268.591 C 130.745,268.716 131.682,268.841 132.119,269.091 C 132.556,269.341 133.369,271.966 135.119,272.779 C 136.869,273.592 138.23,273.674 138.918,273.861 C 139.606,274.048 141.811,275.256 142.873,276.631 C 142.872,276.63 144.455,277.222 144.059,275.64 z "
         id="path39" />
    </g>
    <path
       d="M 338.20255,383.47228 L 338.20255,450.75928 L 291.03455,450.75928 C 291.03455,450.75928 286.33655,439.71628 286.33655,436.33128 C 286.33655,432.94828 286.28755,426.90528 286.28755,426.90528 C 286.28755,426.90528 284.93355,422.16928 284.93355,416.07728 C 284.93355,409.98728 288.31755,398.48328 293.73155,396.45228 C 293.73155,396.45228 309.29655,375.47328 327.56755,378.18128 C 327.56855,378.18128 338.60855,377.93428 338.20255,383.47228 z "
       id="path41"
       style="fill:#736dab" />
    <path
       d="M 333.89955,421.74328 C 335.38855,420.99528 336.23255,422.74328 338.23255,422.74328 C 340.23255,422.74328 342.56555,420.40928 343.56555,421.74128 C 344.56555,423.07528 343.89855,421.74128 343.56555,423.40928 C 343.23255,425.07528 340.46155,425.72028 338.23255,425.74328 C 336.12455,425.76428 335.23155,425.40928 333.56555,423.40928 C 331.89955,421.40928 333.23355,422.07728 333.89955,421.74328 z "
       id="path43" />
    <path
       d="M 334.73255,403.74328 C 334.73255,403.74328 335.89955,402.40928 338.23255,402.40928 C 340.56555,402.40928 342.06555,404.24328 342.73255,404.24328 C 343.39955,404.24328 344.06555,403.90928 344.06555,403.90928 C 344.06555,403.90928 344.06655,402.07728 343.39955,401.74328 C 342.73255,401.40928 339.89955,400.74328 338.39955,400.74328 C 336.89955,400.74328 334.39855,401.74128 333.56555,401.90928 C 332.73255,402.07528 331.89855,403.24328 332.56555,403.74328 C 333.23255,404.24328 334.73255,403.74328 334.73255,403.74328 z "
       id="path45" />
    <g
       transform="translate(209.84255,172.16228)"
       id="g47">
      <path
         d="M 75.906,254.474 C 76.126,257.619 75.687,264.357 76.344,266.38 C 77,268.4 78.752,274.241 79.626,276.263 C 79.932,276.972 80.21,277.82 80.492,278.704 L 82.497,278.587 C 82.37,278.257 82.227,277.931 82.033,277.61 C 80.939,275.815 81.157,273.118 81.157,273.118 C 81.157,273.118 78.969,266.604 78.533,264.583 C 78.095,262.562 79.188,256.944 78.97,255.37 C 78.749,253.8 78.095,252.899 77,249.755 C 75.906,246.609 77.439,242.792 77.656,241.442 C 77.876,240.096 78.312,235.153 78.752,233.805 C 79.189,232.455 81.814,228.412 81.979,227.457 C 82.144,226.502 86.39,225.32 86.39,225.32 C 86.61,223.074 87.941,221.447 87.941,221.447 C 87.941,219.201 95.598,212.91 95.598,212.91 C 98.005,211.113 108.945,207.295 111.788,206.619 C 114.634,205.947 116.165,207.744 116.165,207.744 C 119.885,205.947 123.166,207.744 125.354,209.092 C 127.542,210.44 127.759,212.686 127.759,212.686 C 129.073,214.26 128.854,210.665 128.854,210.665 C 128.854,210.665 127.98,206.173 124.697,205.05 C 121.416,203.925 115.945,204.599 115.945,204.599 C 108.507,203.029 96.691,208.869 93.19,211.564 C 89.69,214.261 82.033,223.919 82.033,223.919 C 82.033,223.919 79.626,225.942 77.439,230.659 C 75.25,235.378 74.812,245.487 75.031,247.509 C 75.25,249.531 75.688,251.327 75.906,254.474 z "
         id="path49" />
      <g
         id="g51">
        <path
           d="M 108.43,210.265 C 109.065,209.177 111.6,211.351 113.501,211.351 C 115.403,211.351 118.89,210.046 121.109,210.482 C 123.328,210.918 126.182,212.658 126.815,214.179 C 127.45,215.7 125.864,221.355 123.961,221.79 C 123.961,221.79 127.133,225.27 125.548,226.575 C 123.961,227.88 123.328,226.575 123.328,225.923 C 123.328,225.271 123.645,223.53 122.377,223.095 C 121.108,222.661 119.523,221.138 119.523,221.138 C 119.523,221.138 122.06,221.138 123.328,219.833 C 124.597,218.528 123.963,216.136 123.328,215.048 C 122.695,213.96 121.11,212.003 119.523,212.003 C 117.939,212.003 114.768,213.308 112.548,213.091 C 110.332,212.874 107.795,211.353 108.43,210.265 z "
           id="path53" />
        <path
           d="M 103.357,216.571 C 103.357,216.571 99.871,220.485 103.357,225.051 C 106.843,229.619 106.527,227.662 106.527,227.662 L 105.259,229.402 C 105.259,229.402 102.724,225.705 100.503,225.922 C 98.284,226.139 95.431,228.096 94.48,231.36 C 93.529,234.622 95.749,237.233 98.602,237.667 C 101.455,238.103 112.234,237.015 112.234,237.015 C 112.234,237.015 111.281,237.667 111.599,238.755 C 111.915,239.841 112.549,241.148 112.549,241.148 C 112.549,241.148 110.014,238.972 103.673,239.189 C 97.333,239.408 95.112,240.494 92.577,244.627 C 90.042,248.76 91.628,254.848 92.895,256.371 C 94.162,257.894 99.87,258.33 100.502,259.851 C 101.136,261.372 99.234,262.896 98.917,263.982 C 98.601,265.07 99.868,265.941 99.868,265.941 C 99.868,265.941 96.381,264.418 93.846,264.636 C 91.309,264.853 86.554,267.245 86.554,267.245 C 86.554,267.245 87.506,267.681 87.188,268.333 C 86.871,268.985 86.237,269.638 86.554,270.29 C 86.87,270.942 87.822,271.376 87.822,271.376 C 87.822,271.376 86.237,271.595 85.286,270.29 C 84.335,268.985 86.237,268.767 85.603,268.114 C 84.969,267.461 83.701,267.68 83.701,267.68 C 83.701,267.68 84.653,267.461 86.237,265.504 C 87.822,263.547 88.456,262.459 90.675,262.459 C 92.896,262.459 95.431,262.676 95.431,262.676 C 95.431,262.676 97.651,261.807 96.7,260.502 C 95.749,259.197 88.457,258.326 88.457,258.326 C 88.457,258.326 90.676,257.021 90.676,255.935 C 90.676,254.847 89.092,252.671 86.238,251.15 C 83.385,249.627 81.166,247.234 81.166,242.668 C 81.166,238.102 79.958,237.061 78.057,235.32 L 78.723,232.32 C 78.723,232.32 80.533,236.361 82.435,237.666 L 87.19,235.49 C 87.19,235.49 86.239,238.318 83.703,239.406 C 83.703,239.406 81.802,243.103 83.387,245.713 C 84.972,248.323 89.093,250.279 89.093,250.279 C 89.093,250.279 90.362,243.972 90.995,242.668 C 91.628,241.363 92.897,240.059 93.214,239.188 C 93.53,238.319 91.311,232.881 91.628,231.141 C 91.946,229.403 94.482,224.182 99.237,223.746 C 99.236,223.747 99.871,216.136 103.357,216.571 z "
           id="path55" />
        <path
           d="M 110.332,227.444 C 110.332,227.444 107.795,226.794 105.576,227.88 C 103.357,228.968 101.771,232.23 103.674,233.97 C 103.674,233.97 104.625,234.622 105.576,233.534 C 105.576,233.534 105.26,228.968 107.162,228.532 C 109.064,228.096 110.332,227.444 110.332,227.444 z "
           id="path57" />
        <path
           d="M 107.795,221.573 C 107.795,221.573 111.281,220.052 114.452,220.921 C 117.622,221.79 119.524,225.704 119.524,225.704 C 119.524,225.704 121.109,222.878 118.256,220.704 C 115.402,218.528 110.648,219.833 108.429,220.052 C 106.211,220.269 105.893,220.485 107.795,221.573 z "
           id="path59" />
        <path
           d="M 111.916,219.833 C 111.916,219.833 112.868,218.093 111.6,217.659 C 110.332,217.223 108.746,216.788 109.381,216.136 C 110.015,215.484 113.185,216.788 114.136,218.745 C 115.087,220.704 115.087,220.704 115.087,220.704 L 111.916,219.833 z "
           id="path61" />
        <path
           d="M 114.452,228.751 C 114.452,228.751 120.475,234.187 120.475,239.841 C 120.475,245.497 117.621,250.064 115.403,250.064 C 113.185,250.064 113.182,248.107 111.599,248.541 C 110.014,248.977 107.795,250.936 110.014,251.369 C 112.234,251.805 114.452,252.674 116.354,251.805 C 118.256,250.934 120.475,249.846 121.745,247.889 C 123.011,245.932 122.694,241.801 123.011,239.625 C 123.329,237.449 119.209,229.838 117.622,228.752 C 116.038,227.663 114.452,226.792 114.452,228.751 z "
           id="path63" />
        <path
           d="M 100.821,246.149 C 100.821,246.149 103.357,245.713 104.308,244.626 C 105.259,243.54 105.575,244.845 104.941,247.019 C 104.308,249.193 103.991,252.673 104.625,254.197 C 105.26,255.718 108.113,259.851 111.916,259.416 C 115.721,258.98 116.989,257.895 117.94,256.59 C 118.891,255.283 120.792,255.067 121.109,256.371 C 121.426,257.675 120.16,259.199 119.524,260.068 C 118.891,260.937 119.207,260.937 117.305,261.589 C 115.403,262.243 111.599,263.112 108.429,262.025 C 105.259,260.938 102.406,256.154 102.406,254.63 C 102.406,253.108 101.771,248.323 100.821,246.149 z "
           id="path65" />
      </g>
      <path
         d="M 78.057,265.321 C 78.057,265.321 78.402,257.077 80.735,255.411 C 83.069,253.745 83.743,253.993 83.815,253.274 C 83.87,252.719 83.925,252.526 82.261,252.581 C 80.928,252.626 77.39,254.987 77.39,254.987 L 78.057,265.321 z "
         id="path67" />
      <path
         d="M 105.723,207.987 C 105.723,207.987 102.723,208.987 103.39,210.653 C 104.057,212.321 104.056,212.987 102.723,212.987 C 101.39,212.987 100.723,210.987 99.057,211.653 C 97.39,212.321 98.723,214.987 97.057,215.321 C 95.39,215.653 94.723,215.319 93.723,215.653 C 92.723,215.987 89.057,218.653 89.39,219.987 C 89.723,221.319 93.057,217.987 94.057,218.653 C 95.057,219.321 96.723,220.319 95.39,220.987 C 94.057,221.653 90.057,221.653 88.39,223.321 C 86.723,224.987 86.297,225.934 85.39,224.987 C 84.44,223.993 87.39,217.987 89.39,216.321 C 91.39,214.653 102.389,207.319 105.723,207.987 z "
         id="path69" />
      <path
         d="M 84.56,236.685 C 84.56,236.685 82.871,237.39 82.354,237.203 C 81.837,237.014 80.524,235.842 79.866,234.574 C 79.21,233.306 79.491,232.32 79.772,231.664 L 78.364,233.072 L 77.613,238.187 L 78.036,237.812 C 78.036,237.812 78.177,236.544 78.645,236.591 C 79.115,236.638 80.147,237.53 80.147,237.53 L 83.152,237.952 L 84.607,237.106 L 84.56,236.685 z "
         id="path71" />
      <path
         d="M 80.291,253.274 C 80.291,253.274 79.237,253.829 78.766,253.608 C 78.294,253.385 78.1,252.608 78.1,252.608 L 78.516,254.717 L 79.625,254.717 L 80.291,253.274 z "
         id="path73" />
      <path
         d="M 119.39,255.821 C 120.259,256.342 121.082,256.751 120.915,257.251 C 120.748,257.751 119.39,270.987 113.39,271.321 C 107.39,271.653 102.223,269.821 99.223,271.821 C 96.223,273.821 99.557,275.653 99.557,275.653 C 99.557,275.653 99.891,277.987 97.223,276.153 C 97.223,276.153 96.391,276.653 96.223,276.153 C 96.057,275.653 95.89,272.155 97.39,271.321 C 98.89,270.487 101.057,269.821 102.057,269.153 C 103.057,268.487 109.893,269.913 111.727,269.585 C 115.57,268.894 115.305,265.556 116.805,263.056 C 118.305,260.556 118.557,255.321 119.39,255.821 z "
         id="path75" />
      <path
         d="M 80.057,269.653 C 80.057,269.653 81.39,273.321 83.39,273.321 C 83.39,273.321 80.723,274.321 81.057,275.653 C 81.39,276.987 80.057,269.653 80.057,269.653 z "
         id="path77" />
      <path
         d="M 112.824,275.64 C 112.824,275.64 114.372,272.466 117.372,272.279 C 120.372,272.092 119.931,272.072 120.931,271.884 C 121.931,271.696 123.515,268.466 124.577,268.216 C 125.639,267.966 126.015,267.591 126.452,267.778 C 126.889,267.965 126.64,268.466 126.389,268.591 C 126.138,268.716 125.201,268.841 124.764,269.091 C 124.327,269.341 123.514,271.966 121.764,272.779 C 120.014,273.592 118.652,273.674 117.964,273.861 C 117.276,274.048 115.072,275.256 114.01,276.631 C 114.011,276.63 112.429,277.222 112.824,275.64 z "
         id="path79" />
    </g>
    <path
       d="M 301.00955,364.05028 L 292.05155,367.06628 L 291.98955,376.36928 C 291.69555,376.33328 291.37355,376.34228 291.03555,376.40328 C 289.66955,376.65428 288.56255,377.66328 288.56255,378.65728 C 288.56255,379.65028 289.66855,380.25328 291.03555,380.00428 C 292.39855,379.75428 293.50455,378.74528 293.50455,377.75228 C 293.50455,377.71628 293.49255,377.68428 293.48955,377.64828 L 293.48955,369.82228 L 299.50755,367.79328 L 299.50755,373.74728 C 299.20855,373.70828 298.88155,373.71628 298.53555,373.77828 C 297.16955,374.02928 296.06255,375.03828 296.06255,376.03228 C 296.06255,377.02528 297.16855,377.62828 298.53555,377.37928 C 299.86955,377.13528 300.94855,376.16328 300.99555,375.19128 L 301.00755,375.19128 L 301.00955,364.05028 z "
       id="path81" />
    <path
       d="M 268.00955,393.05028 L 259.05155,396.06628 L 258.98955,405.36928 C 258.69555,405.33328 258.37355,405.34228 258.03555,405.40328 C 256.66955,405.65428 255.56255,406.66328 255.56255,407.65728 C 255.56255,408.65028 256.66855,409.25328 258.03555,409.00428 C 259.39855,408.75428 260.50455,407.74528 260.50455,406.75228 C 260.50455,406.71628 260.49255,406.68428 260.48955,406.64828 L 260.48955,398.82228 L 266.50755,396.79328 L 266.50755,402.74728 C 266.20855,402.70828 265.88155,402.71628 265.53555,402.77828 C 264.16955,403.02928 263.06255,404.03828 263.06255,405.03228 C 263.06255,406.02528 264.16855,406.62828 265.53555,406.37928 C 266.86955,406.13528 267.94855,405.16328 267.99555,404.19128 L 268.00755,404.19128 L 268.00955,393.05028 z "
       id="path83" />
    <path
       d="M 279.00955,415.05028 L 270.05155,418.06628 L 269.98955,427.36928 C 269.69555,427.33328 269.37355,427.34228 269.03555,427.40328 C 267.66955,427.65428 266.56255,428.66328 266.56255,429.65728 C 266.56255,430.65028 267.66855,431.25328 269.03555,431.00428 C 270.39855,430.75428 271.50455,429.74528 271.50455,428.75228 C 271.50455,428.71628 271.49255,428.68428 271.48955,428.64828 L 271.48955,420.82228 L 277.50755,418.79328 L 277.50755,424.74728 C 277.20855,424.70828 276.88155,424.71628 276.53555,424.77828 C 275.16955,425.02928 274.06255,426.03828 274.06255,427.03228 C 274.06255,428.02528 275.16855,428.62828 276.53555,428.37928 C 277.86955,428.13528 278.94855,427.16328 278.99555,426.19128 L 279.00755,426.19128 L 279.00955,415.05028 z "
       id="path85" />
    <path
       d="M 370.50955,356.05028 L 361.55155,359.06628 L 361.48955,368.36928 C 361.19555,368.33328 360.87355,368.34228 360.53555,368.40328 C 359.16955,368.65428 358.06255,369.66328 358.06255,370.65728 C 358.06255,371.65028 359.16855,372.25328 360.53555,372.00428 C 361.89855,371.75428 363.00455,370.74528 363.00455,369.75228 C 363.00455,369.71628 362.99255,369.68428 362.98955,369.64828 L 362.98955,361.82228 L 369.00755,359.79328 L 369.00755,365.74728 C 368.70855,365.70828 368.38155,365.71628 368.03555,365.77828 C 366.66955,366.02928 365.56255,367.03828 365.56255,368.03228 C 365.56255,369.02528 366.66855,369.62828 368.03555,369.37928 C 369.36955,369.13528 370.44855,368.16328 370.49555,367.19128 L 370.50755,367.19128 L 370.50955,356.05028 z "
       id="path87" />
    <path
       d="M 412.84255,372.55028 L 403.88455,375.56628 L 403.82255,384.86928 C 403.52855,384.83328 403.20655,384.84228 402.86855,384.90328 C 401.50255,385.15428 400.39555,386.16328 400.39555,387.15728 C 400.39555,388.15028 401.50155,388.75328 402.86855,388.50428 C 404.23155,388.25428 405.33755,387.24528 405.33755,386.25228 C 405.33755,386.21628 405.32555,386.18428 405.32255,386.14828 L 405.32255,378.32228 L 411.34055,376.29328 L 411.34055,382.24728 C 411.04155,382.20828 410.71455,382.21628 410.36855,382.27828 C 409.00255,382.52928 407.89555,383.53828 407.89555,384.53228 C 407.89555,385.52528 409.00155,386.12828 410.36855,385.87928 C 411.70255,385.63528 412.78155,384.66328 412.82855,383.69128 L 412.84055,383.69128 L 412.84255,372.55028 z "
       id="path89" />
    <path
       d="M 406.50955,400.05028 L 397.55155,403.06628 L 397.48955,412.36928 C 397.19555,412.33328 396.87355,412.34228 396.53555,412.40328 C 395.16955,412.65428 394.06255,413.66328 394.06255,414.65728 C 394.06255,415.65028 395.16855,416.25328 396.53555,416.00428 C 397.89855,415.75428 399.00455,414.74528 399.00455,413.75228 C 399.00455,413.71628 398.99255,413.68428 398.98955,413.64828 L 398.98955,405.82228 L 405.00755,403.79328 L 405.00755,409.74728 C 404.70855,409.70828 404.38155,409.71628 404.03555,409.77828 C 402.66955,410.02928 401.56255,411.03828 401.56255,412.03228 C 401.56255,413.02528 402.66855,413.62828 404.03555,413.37928 C 405.36955,413.13528 406.44855,412.16328 406.49555,411.19128 L 406.50755,411.19128 L 406.50955,400.05028 z "
       id="path91" />
    <polygon
       transform="translate(209.84255,172.16228)"
       points="210.805,299.575 47.442,299.575 47.844,278.548 211.207,278.548 210.805,299.575 "
       id="polygon95"
       style="fill:#9999ff" />
    <path
       d="M 375.92055,450.65528 L 384.92055,450.65528 C 384.92055,450.65528 384.35055,448.35828 382.34655,448.30328 C 380.34455,448.25128 375.91855,450.65628 375.92055,450.65528 z "
       id="path97"
       style="fill:#ff9900" />
    <path
       d="M 307.39955,447.42128 C 307.39955,447.42128 304.47755,446.52828 302.14555,446.62428 C 299.81255,446.71828 298.80755,448.71028 298.80755,448.71028 C 298.80755,448.71028 301.23955,447.72428 302.56555,447.74328 C 303.89355,447.76328 306.24155,448.76628 306.24155,448.76628 L 307.39955,447.42128 z "
       id="path99" />
    <rect
       x="253.40555"
       y="448.05029"
       width="170"
       height="25.333"
       id="rect101"
       style="fill:#bcaeed;stroke:#000000" />
    <g
       transform="translate(209.84255,172.16228)"
       id="g103">
      <g
         id="g105">
        <path
           d="M 51.35,279.122 L 56.389,279.122 L 60.384,289.644 L 64.613,279.122 L 69.705,279.122 L 72.682,298.81 L 67.564,298.81 L 66.128,287.478 L 66.076,287.478 L 61.35,298.81 L 59.314,298.81 L 54.796,287.478 L 54.744,287.478 L 53.1,298.81 L 48.008,298.81 L 51.35,279.122 z "
           id="path107"
           style="fill:#6600cc" />
        <path
           d="M 79.418,285.415 L 79.418,292.569 C 79.418,294.266 79.836,295.466 81.794,295.466 C 83.752,295.466 84.17,294.266 84.17,292.569 L 84.17,285.415 L 88.922,285.415 L 88.922,293.482 C 88.922,297.895 85.815,299.253 81.794,299.253 C 77.773,299.253 74.666,297.896 74.666,293.482 L 74.666,285.415 L 79.418,285.415 z "
           id="path109"
           style="fill:#6600cc" />
        <path
           d="M 100.802,288.861 C 100.071,288.469 99.053,288.209 98.243,288.209 C 97.695,288.209 96.755,288.443 96.755,289.122 C 96.755,290.036 98.243,290.167 98.896,290.298 C 101.116,290.741 102.787,291.786 102.787,294.267 C 102.787,297.791 99.575,299.253 96.469,299.253 C 94.563,299.253 92.683,298.705 91.064,297.713 L 92.788,294.397 C 93.754,295.076 95.373,295.755 96.548,295.755 C 97.149,295.755 98.036,295.467 98.036,294.736 C 98.036,293.691 96.548,293.639 95.059,293.248 C 93.57,292.857 92.082,292.125 92.082,289.723 C 92.082,286.434 95.059,284.971 97.983,284.971 C 99.497,284.971 101.011,285.206 102.395,285.833 L 100.802,288.861 z "
           id="path111"
           style="fill:#6600cc" />
        <path
           d="M 110.384,280.271 C 110.384,281.733 109.184,282.934 107.721,282.934 C 106.259,282.934 105.058,281.733 105.058,280.271 C 105.058,278.809 106.259,277.608 107.721,277.608 C 109.184,277.608 110.384,278.81 110.384,280.271 z M 110.097,298.81 L 105.345,298.81 L 105.345,285.415 L 110.097,285.415 L 110.097,298.81 z "
           id="path113"
           style="fill:#6600cc" />
        <path
           d="M 122.891,289.775 C 122.186,289.253 121.351,288.835 120.437,288.835 C 118.61,288.835 117.173,290.245 117.173,292.099 C 117.173,294.032 118.557,295.389 120.515,295.389 C 121.351,295.389 122.265,295.05 122.891,294.475 L 122.891,298.496 C 121.847,299.018 120.698,299.253 119.549,299.253 C 115.58,299.253 112.265,296.303 112.265,292.256 C 112.265,287.947 115.554,284.971 119.758,284.971 C 120.855,284.971 121.951,285.233 122.891,285.754 L 122.891,289.775 z "
           id="path115"
           style="fill:#6600cc" />
        <path
           d="M 125.945,298.81 L 125.945,279.122 L 133.257,279.122 C 136.755,279.122 139.106,280.48 139.106,284.24 C 139.106,286.015 138.531,287.451 136.938,288.261 L 136.938,288.314 C 139.758,288.679 140.959,290.585 140.959,293.327 C 140.959,297.452 137.434,298.81 133.831,298.81 L 125.945,298.81 z M 131.063,286.851 L 131.637,286.851 C 132.994,286.851 134.405,286.617 134.405,284.946 C 134.405,283.144 132.812,283.04 131.428,283.04 L 131.063,283.04 L 131.063,286.851 z M 131.063,294.893 L 131.715,294.893 C 133.23,294.893 135.788,294.971 135.788,292.804 C 135.788,290.428 133.256,290.663 131.585,290.663 L 131.063,290.663 L 131.063,294.893 z "
           id="path117"
           style="fill:#6600cc" />
        <path
           d="M 148.27,287.608 L 148.323,287.608 C 149.236,285.962 150.803,285.232 152.657,285.232 L 153.571,285.232 L 153.571,289.801 C 152.918,289.435 152.292,289.357 151.56,289.357 C 148.923,289.357 148.27,291.106 148.27,293.404 L 148.27,298.809 L 143.518,298.809 L 143.518,285.414 L 148.27,285.414 L 148.27,287.608 z "
           id="path119"
           style="fill:#6600cc" />
        <path
           d="M 169.993,298.81 L 165.241,298.81 L 165.241,297.322 L 165.188,297.322 C 164.353,298.653 162.709,299.254 161.141,299.254 C 157.172,299.254 154.379,295.939 154.379,292.1 C 154.379,288.262 157.12,284.972 161.089,284.972 C 162.629,284.972 164.248,285.547 165.24,286.722 L 165.24,285.416 L 169.992,285.416 L 169.992,298.81 L 169.993,298.81 z M 159.288,292.125 C 159.288,293.822 160.411,295.128 162.343,295.128 C 164.276,295.128 165.398,293.822 165.398,292.125 C 165.398,290.48 164.276,289.097 162.343,289.097 C 160.411,289.097 159.288,290.48 159.288,292.125 z "
           id="path121"
           style="fill:#6600cc" />
        <path
           d="M 178.191,280.271 C 178.191,281.733 176.99,282.934 175.528,282.934 C 174.066,282.934 172.865,281.733 172.865,280.271 C 172.865,278.809 174.066,277.608 175.528,277.608 C 176.99,277.608 178.191,278.81 178.191,280.271 z M 177.904,298.81 L 173.152,298.81 L 173.152,285.415 L 177.904,285.415 L 177.904,298.81 z "
           id="path123"
           style="fill:#6600cc" />
        <path
           d="M 185.79,287.139 L 185.842,287.139 C 186.939,285.52 188.271,284.971 190.124,284.971 C 193.727,284.971 195.163,287.242 195.163,290.533 L 195.163,298.81 L 190.411,298.81 L 190.411,292.283 C 190.411,291.003 190.62,288.758 188.27,288.758 C 186.337,288.758 185.79,290.195 185.79,291.865 L 185.79,298.81 L 181.038,298.81 L 181.038,285.415 L 185.79,285.415 L 185.79,287.139 z "
           id="path125"
           style="fill:#6600cc" />
        <path
           d="M 210.516,294.866 L 210.516,298.809 L 196.939,298.809 L 203.232,289.357 L 197.775,289.357 L 197.775,285.415 L 211.143,285.415 L 204.876,294.866 L 210.516,294.866 z "
           id="path127"
           style="fill:#6600cc" />
      </g>
      <g
         id="g129">
        <path
           d="M 51.35,279.122 L 56.389,279.122 L 60.384,289.644 L 64.613,279.122 L 69.705,279.122 L 72.682,298.81 L 67.564,298.81 L 66.128,287.478 L 66.076,287.478 L 61.35,298.81 L 59.314,298.81 L 54.796,287.478 L 54.744,287.478 L 53.1,298.81 L 48.008,298.81 L 51.35,279.122 z "
           id="path131"
           style="fill:#34176b" />
        <path
           d="M 79.418,285.415 L 79.418,292.569 C 79.418,294.266 79.836,295.466 81.794,295.466 C 83.752,295.466 84.17,294.266 84.17,292.569 L 84.17,285.415 L 88.922,285.415 L 88.922,293.482 C 88.922,297.895 85.815,299.253 81.794,299.253 C 77.773,299.253 74.666,297.896 74.666,293.482 L 74.666,285.415 L 79.418,285.415 z "
           id="path133"
           style="fill:#34176b" />
        <path
           d="M 100.802,288.861 C 100.071,288.469 99.053,288.209 98.243,288.209 C 97.695,288.209 96.755,288.443 96.755,289.122 C 96.755,290.036 98.243,290.167 98.896,290.298 C 101.116,290.741 102.787,291.786 102.787,294.267 C 102.787,297.791 99.575,299.253 96.469,299.253 C 94.563,299.253 92.683,298.705 91.064,297.713 L 92.788,294.397 C 93.754,295.076 95.373,295.755 96.548,295.755 C 97.149,295.755 98.036,295.467 98.036,294.736 C 98.036,293.691 96.548,293.639 95.059,293.248 C 93.57,292.857 92.082,292.125 92.082,289.723 C 92.082,286.434 95.059,284.971 97.983,284.971 C 99.497,284.971 101.011,285.206 102.395,285.833 L 100.802,288.861 z "
           id="path135"
           style="fill:#34176b" />
        <path
           d="M 110.384,280.271 C 110.384,281.733 109.184,282.934 107.721,282.934 C 106.259,282.934 105.058,281.733 105.058,280.271 C 105.058,278.809 106.259,277.608 107.721,277.608 C 109.184,277.608 110.384,278.81 110.384,280.271 z M 110.097,298.81 L 105.345,298.81 L 105.345,285.415 L 110.097,285.415 L 110.097,298.81 z "
           id="path137"
           style="fill:#34176b" />
        <path
           d="M 122.891,289.775 C 122.186,289.253 121.351,288.835 120.437,288.835 C 118.61,288.835 117.173,290.245 117.173,292.099 C 117.173,294.032 118.557,295.389 120.515,295.389 C 121.351,295.389 122.265,295.05 122.891,294.475 L 122.891,298.496 C 121.847,299.018 120.698,299.253 119.549,299.253 C 115.58,299.253 112.265,296.303 112.265,292.256 C 112.265,287.947 115.554,284.971 119.758,284.971 C 120.855,284.971 121.951,285.233 122.891,285.754 L 122.891,289.775 z "
           id="path139"
           style="fill:#34176b" />
        <path
           d="M 125.945,298.81 L 125.945,279.122 L 133.257,279.122 C 136.755,279.122 139.106,280.48 139.106,284.24 C 139.106,286.015 138.531,287.451 136.938,288.261 L 136.938,288.314 C 139.758,288.679 140.959,290.585 140.959,293.327 C 140.959,297.452 137.434,298.81 133.831,298.81 L 125.945,298.81 z M 131.063,286.851 L 131.637,286.851 C 132.994,286.851 134.405,286.617 134.405,284.946 C 134.405,283.144 132.812,283.04 131.428,283.04 L 131.063,283.04 L 131.063,286.851 z M 131.063,294.893 L 131.715,294.893 C 133.23,294.893 135.788,294.971 135.788,292.804 C 135.788,290.428 133.256,290.663 131.585,290.663 L 131.063,290.663 L 131.063,294.893 z "
           id="path141"
           style="fill:#34176b" />
        <path
           d="M 148.27,287.608 L 148.323,287.608 C 149.236,285.962 150.803,285.232 152.657,285.232 L 153.571,285.232 L 153.571,289.801 C 152.918,289.435 152.292,289.357 151.56,289.357 C 148.923,289.357 148.27,291.106 148.27,293.404 L 148.27,298.809 L 143.518,298.809 L 143.518,285.414 L 148.27,285.414 L 148.27,287.608 z "
           id="path143"
           style="fill:#34176b" />
        <path
           d="M 169.993,298.81 L 165.241,298.81 L 165.241,297.322 L 165.188,297.322 C 164.353,298.653 162.709,299.254 161.141,299.254 C 157.172,299.254 154.379,295.939 154.379,292.1 C 154.379,288.262 157.12,284.972 161.089,284.972 C 162.629,284.972 164.248,285.547 165.24,286.722 L 165.24,285.416 L 169.992,285.416 L 169.992,298.81 L 169.993,298.81 z M 159.288,292.125 C 159.288,293.822 160.411,295.128 162.343,295.128 C 164.276,295.128 165.398,293.822 165.398,292.125 C 165.398,290.48 164.276,289.097 162.343,289.097 C 160.411,289.097 159.288,290.48 159.288,292.125 z "
           id="path145"
           style="fill:#34176b" />
        <path
           d="M 178.191,280.271 C 178.191,281.733 176.99,282.934 175.528,282.934 C 174.066,282.934 172.865,281.733 172.865,280.271 C 172.865,278.809 174.066,277.608 175.528,277.608 C 176.99,277.608 178.191,278.81 178.191,280.271 z M 177.904,298.81 L 173.152,298.81 L 173.152,285.415 L 177.904,285.415 L 177.904,298.81 z "
           id="path147"
           style="fill:#34176b" />
        <path
           d="M 185.79,287.139 L 185.842,287.139 C 186.939,285.52 188.271,284.971 190.124,284.971 C 193.727,284.971 195.163,287.242 195.163,290.533 L 195.163,298.81 L 190.411,298.81 L 190.411,292.283 C 190.411,291.003 190.62,288.758 188.27,288.758 C 186.337,288.758 185.79,290.195 185.79,291.865 L 185.79,298.81 L 181.038,298.81 L 181.038,285.415 L 185.79,285.415 L 185.79,287.139 z "
           id="path149"
           style="fill:#34176b" />
        <path
           d="M 210.516,294.866 L 210.516,298.809 L 196.939,298.809 L 203.232,289.357 L 197.775,289.357 L 197.775,285.415 L 211.143,285.415 L 204.876,294.866 L 210.516,294.866 z "
           id="path151"
           style="fill:#34176b" />
      </g>
    </g>
  </g>
</svg>
