<?xml version="1.0" encoding="UTF-8" standalone="no"?>
<svg
   xmlns:a="http://ns.adobe.com/AdobeSVGViewerExtensions/3.0/"
   xmlns:dc="http://purl.org/dc/elements/1.1/"
   xmlns:cc="http://web.resource.org/cc/"
   xmlns:rdf="http://www.w3.org/1999/02/22-rdf-syntax-ns#"
   xmlns:svg="http://www.w3.org/2000/svg"
   xmlns="http://www.w3.org/2000/svg"
   xmlns:sodipodi="http://sodipodi.sourceforge.net/DTD/sodipodi-0.dtd"
   xmlns:inkscape="http://www.inkscape.org/namespaces/inkscape"
   width="122"
   height="122"
   viewBox="-0.122 0.464 116 122"
   overflow="visible"
   enable-background="new -0.122 0.464 116 122"
   xml:space="preserve"
   id="svg2"
   sodipodi:version="0.32"
   inkscape:version="0.45.1"
   sodipodi:docname="palette.svg"
   sodipodi:docbase="/home/ciobi/cpp/Mp3Utils/Mp3TagDoctorQt4/src/images"
   inkscape:output_extension="org.inkscape.output.svg.inkscape"
   version="1.0"><metadata
   id="metadata83"><rdf:RDF><cc:Work
       rdf:about=""><dc:format>image/svg+xml</dc:format><dc:type
         rdf:resource="http://purl.org/dc/dcmitype/StillImage" /></cc:Work></rdf:RDF></metadata><defs
   id="defs81" /><sodipodi:namedview
   inkscape:window-height="843"
   inkscape:window-width="1044"
   inkscape:pageshadow="2"
   inkscape:pageopacity="0.0"
   guidetolerance="10.0"
   gridtolerance="10.0"
   objecttolerance="10.0"
   borderopacity="1.0"
   bordercolor="#666666"
   pagecolor="#ffffff"
   id="base"
   width="122px"
   height="122px"
   inkscape:zoom="3.5655738"
   inkscape:cx="58"
   inkscape:cy="61"
   inkscape:window-x="548"
   inkscape:window-y="279"
   inkscape:current-layer="svg2" />
	<g
   id="Layer_1_2_"
   transform="translate(6.3441463e-2,0.4859544)">
		<path
   d="M 33.135,99.523 C 37.248,100.104 41.94,96.654 44.183,91.648 C 43.93,87.779 41.802,84.835 38.402,84.358 C 34.608,83.827 30.352,86.52 27.734,90.714 C 27.273,95.286 29.384,98.997 33.135,99.523 z "
   style="fill:none"
   id="path5" />
		<linearGradient
   id="XMLID_1_"
   gradientUnits="userSpaceOnUse"
   x1="39.293499"
   y1="25.107901"
   x2="34.822201"
   y2="121.414">
			<stop
   offset="0.0056"
   style="stop-color:rgb(255,174,33)"
   id="stop8" />
			<stop
   offset="0.9888"
   style="stop-color:rgb(255,255,189)"
   id="stop10" />
			<a:midPointStop
   offset="0.0056"
   style="stop-color:#FFAE21" />
			<a:midPointStop
   offset="0.5"
   style="stop-color:#FFAE21" />
			<a:midPointStop
   offset="0.9888"
   style="stop-color:#FFFFBD" />
		</linearGradient>
		<path
   d="M 38.403,84.358 C 41.803,84.836 43.931,87.779 44.184,91.648 C 44.409,91.146 44.618,90.634 44.79,90.103 C 46.68,84.274 44.533,79 40.005,78.365 C 35.477,77.731 30.241,81.967 28.351,87.791 C 28.027,88.79 27.83,89.77 27.734,90.715 C 30.353,86.52 34.608,83.827 38.403,84.358 z "
   style="fill:url(#XMLID_1_)"
   id="path12" />
		<linearGradient
   id="XMLID_2_"
   gradientUnits="userSpaceOnUse"
   x1="59.611801"
   y1="26.045401"
   x2="55.1408"
   y2="122.347">
			<stop
   offset="0.0056"
   style="stop-color:rgb(255,174,33)"
   id="stop15" />
			<stop
   offset="0.9888"
   style="stop-color:rgb(255,255,189)"
   id="stop17" />
			<a:midPointStop
   offset="0.0056"
   style="stop-color:#FFAE21" />
			<a:midPointStop
   offset="0.5"
   style="stop-color:#FFAE21" />
			<a:midPointStop
   offset="0.9888"
   style="stop-color:#FFFFBD" />
		</linearGradient>
		<path
   d="M 103.088,9.324 C 101.909,8.352 100.678,7.472 99.41,6.655 C 99.899,7.019 100.388,7.383 100.861,7.773 C 128.131,30.26 102.86,78.268 96.81,83.648 C 90.761,89.035 88.41,90.371 81.811,91.385 C 75.209,92.398 66.064,84.735 58.9,91.07 C 51.733,97.403 52.471,103.75 49.103,108.665 C 46.959,111.791 42.755,113.042 38.886,113.802 C 30.615,113.148 23.005,110.264 16.865,104.954 C -2.867,87.899 -0.096,52.16 23.036,25.399 C 24.181,24.075 25.361,22.811 26.558,21.582 C 24.427,23.61 22.353,25.76 20.366,28.06 C -4.221,56.505 -7.167,94.492 13.807,112.619 C 20.333,118.263 28.422,121.328 37.213,122.023 C 41.326,121.215 45.794,119.885 48.073,116.563 C 51.653,111.338 50.869,104.592 58.486,97.861 C 66.101,91.128 75.822,99.273 82.839,98.197 C 89.854,97.119 92.353,95.698 98.782,89.972 C 105.212,84.254 132.073,33.226 103.088,9.324 z "
   style="fill:url(#XMLID_2_)"
   id="path19" />
		<linearGradient
   id="XMLID_3_"
   gradientUnits="userSpaceOnUse"
   x1="5.9110999"
   y1="70.556198"
   x2="109.016"
   y2="40.991299">
			<stop
   offset="0.0056"
   style="stop-color:rgb(255,174,33)"
   id="stop22" />
			<stop
   offset="0.9888"
   style="stop-color:rgb(255,255,189)"
   id="stop24" />
			<a:midPointStop
   offset="0.0056"
   style="stop-color:#FFAE21" />
			<a:midPointStop
   offset="0.5"
   style="stop-color:#FFAE21" />
			<a:midPointStop
   offset="0.9888"
   style="stop-color:#FFFFBD" />
		</linearGradient>
		<path
   d="M 16.865,104.953 C 23.005,110.263 30.615,113.146 38.886,113.801 C 42.756,113.041 46.959,111.79 49.103,108.664 C 52.471,103.749 51.733,97.402 58.9,91.069 C 66.064,84.734 75.21,92.397 81.811,91.384 C 88.41,90.369 90.761,89.033 96.81,83.647 C 102.86,78.267 128.13,30.259 100.861,7.772 C 100.387,7.382 99.899,7.018 99.41,6.654 C 79.539,-6.165 49.347,-0.104 26.558,21.582 C 25.36,22.811 24.18,24.075 23.036,25.399 C -0.096,52.16 -2.867,87.899 16.865,104.953 z M 26.015,94.376 C 26.44,93.066 27.032,91.84 27.734,90.714 C 27.829,89.769 28.026,88.789 28.351,87.79 C 30.241,81.966 35.477,77.73 40.005,78.364 C 44.533,79 46.68,84.274 44.79,90.103 C 44.618,90.634 44.409,91.146 44.184,91.648 C 44.289,93.254 44.079,95.017 43.489,96.835 C 41.477,103.027 35.911,107.527 31.101,106.848 C 26.289,106.172 24.003,100.572 26.015,94.376 z "
   style="fill:url(#XMLID_3_)"
   id="path26" />
		<linearGradient
   id="XMLID_4_"
   gradientUnits="userSpaceOnUse"
   x1="10.6279"
   y1="69.8853"
   x2="107.473"
   y2="42.115398">
			<stop
   offset="0.0056"
   style="stop-color:rgb(255,174,33)"
   id="stop29" />
			<stop
   offset="0.9888"
   style="stop-color:rgb(255,255,189)"
   id="stop31" />
			<a:midPointStop
   offset="0.0056"
   style="stop-color:#FFAE21" />
			<a:midPointStop
   offset="0.5"
   style="stop-color:#FFAE21" />
			<a:midPointStop
   offset="0.9888"
   style="stop-color:#FFFFBD" />
		</linearGradient>
		<path
   d="M 16.865,105.06 C 23.005,110.305 30.615,113.154 38.886,113.8 C 42.756,113.049 46.959,111.814 49.103,108.726 C 52.471,103.87 51.733,97.6 58.9,91.344 C 66.064,85.085 75.21,92.656 81.811,91.656 C 88.41,90.653 90.761,89.334 96.81,84.011 C 102.86,78.697 128.13,31.269 100.861,9.054 C 100.387,8.669 99.899,8.309 99.41,7.95 C 79.539,-4.714 49.347,1.273 26.558,22.697 C 25.36,23.911 24.18,25.159 23.036,26.468 C -0.096,52.905 -2.867,88.212 16.865,105.06 z M 26.015,94.612 C 26.44,93.318 27.032,92.106 27.734,90.994 C 27.829,90.06 28.026,89.093 28.351,88.105 C 30.241,82.351 35.477,78.167 40.005,78.793 C 44.532,79.421 46.68,84.631 44.79,90.389 C 44.618,90.914 44.409,91.42 44.184,91.915 C 44.289,93.502 44.079,95.244 43.489,97.039 C 41.477,103.156 35.911,107.602 31.101,106.931 C 26.289,106.264 24.003,100.732 26.015,94.612 z "
   style="fill:url(#XMLID_4_)"
   id="path33" />
		<linearGradient
   id="XMLID_5_"
   gradientUnits="userSpaceOnUse"
   x1="58.077099"
   y1="22.0371"
   x2="58.077099"
   y2="114.324">
			<stop
   offset="0"
   style="stop-color:rgb(116,68,38)"
   id="stop36" />
			<stop
   offset="1"
   style="stop-color:rgb(222,151,43)"
   id="stop38" />
			<a:midPointStop
   offset="0"
   style="stop-color:#744426" />
			<a:midPointStop
   offset="0.5"
   style="stop-color:#744426" />
			<a:midPointStop
   offset="1"
   style="stop-color:#DE972B" />
		</linearGradient>
		<path
   d="M 20.366,28.06 C 44.951,-0.392 81.696,-8.313 103.088,9.324 C 132.068,33.226 105.212,84.25 98.782,89.972 C 92.352,95.698 89.853,97.116 82.839,98.197 C 75.822,99.273 66.102,91.125 58.485,97.861 C 50.87,104.597 51.652,111.339 48.071,116.559 C 45.792,119.885 41.326,121.215 37.214,122.023 C 28.422,121.328 20.331,118.262 13.806,112.619 C -7.169,94.489 -4.221,56.504 20.366,28.06 M 22.574,30.185 C 46.183,3.673 80.744,-3.794 100.382,12.539 C 126.997,34.685 100.783,82.188 94.648,87.524 C 88.503,92.861 86.138,94.185 79.55,95.209 C 72.963,96.231 64.039,88.684 56.767,94.966 C 49.498,101.251 50.086,107.515 46.627,112.38 C 44.423,115.474 40.216,116.721 36.35,117.486 C 28.136,116.861 20.631,114.032 14.644,108.811 C -4.599,92.015 -1.038,56.695 22.574,30.185"
   style="fill:url(#XMLID_5_);fill-rule:evenodd"
   id="path40" />
		<linearGradient
   id="XMLID_6_"
   gradientUnits="userSpaceOnUse"
   x1="34.992699"
   y1="22.040001"
   x2="34.992699"
   y2="114.32">
			<stop
   offset="0"
   style="stop-color:rgb(116,68,38)"
   id="stop43" />
			<stop
   offset="1"
   style="stop-color:rgb(222,151,43)"
   id="stop45" />
			<a:midPointStop
   offset="0"
   style="stop-color:#744426" />
			<a:midPointStop
   offset="0.5"
   style="stop-color:#744426" />
			<a:midPointStop
   offset="1"
   style="stop-color:#DE972B" />
		</linearGradient>
		<path
   d="M 38.996,82.518 C 44.607,84.192 47.392,91.575 45.19,98.955 C 42.985,106.333 36.609,110.985 30.995,109.309 C 25.379,107.633 22.595,100.247 24.795,92.865 C 26.999,85.49 33.375,80.84 38.996,82.518 M 39.696,85.211 C 43.805,86.562 44.968,92.479 42.28,98.381 C 39.592,104.286 34.048,107.998 29.936,106.647 C 25.824,105.297 24.662,99.381 27.346,93.477 C 30.038,87.573 35.582,83.86 39.696,85.211"
   style="fill:url(#XMLID_6_);fill-rule:evenodd"
   id="path47" />
		<path
   d="M 11.149,55.021 L 12.23,56.165 L 13.442,57.217 L 14.679,58.236 L 15.814,59.272 L 16.731,60.307 L 17.332,61.359 L 17.591,62.571 L 17.558,64.078 L 17.328,65.793 L 17.037,67.592 L 16.838,69.374 L 16.919,71.097 L 17.572,72.684 L 19.1,73.76 L 20.981,73.806 L 22.406,72.76 L 23.376,71.265 L 24.14,69.583 L 24.83,67.872 L 25.511,66.355 L 26.191,65.299 L 26.754,64.867 L 27.125,64.859 L 27.626,65.186 L 28.285,65.986 L 28.959,67.054 L 29.638,68.158 L 30.45,69.168 L 31.877,69.729 L 33.113,68.562 L 33.551,66.998 L 33.41,65.403 L 32.969,63.816 L 32.385,62.253 L 31.802,60.736 L 31.344,59.368 L 31.135,58.258 L 31.213,57.546 L 31.288,57.439 L 31.762,57.588 L 32.562,57.977 L 33.54,58.442 L 34.701,58.765 L 36.034,58.534 L 36.993,57.465 L 37.6,56.073 L 38.122,54.515 L 38.56,52.766 L 38.86,50.901 L 38.978,49.002 L 38.85,47.129 L 38.401,45.372 L 37.512,43.793 L 36.151,42.711 L 34.546,42.325 L 32.928,42.413 L 31.349,42.741 L 29.841,43.138 L 28.46,43.453 L 27.312,43.565 L 26.496,43.411 L 25.906,42.981 L 25.365,42.14 L 24.891,40.984 L 24.455,39.695 L 23.989,38.444 L 23.291,37.284 L 21.963,36.625 L 20.426,37.271 L 19.361,38.609 L 18.835,40.233 L 18.626,41.99 L 18.57,43.8 L 18.556,45.578 L 18.472,47.198 L 18.237,48.524 L 17.835,49.406 L 17.313,49.856 L 16.557,50.046 L 15.509,50.046 L 14.3,49.908 L 13.041,49.786 L 11.737,49.867 L 10.511,50.588 L 10.039,52.112 L 10.339,53.694 L 11.149,55.021 M 74.4,15.526 L 74.144,17.175 L 74.595,18.696 L 75.444,19.96 L 76.46,21.049 L 77.462,22.044 L 78.307,22.98 L 78.847,23.821 L 79.026,24.563 L 78.866,25.243 L 78.349,25.972 L 77.492,26.78 L 76.461,27.646 L 75.425,28.624 L 74.571,29.833 L 74.244,31.371 L 74.771,33.024 L 75.914,34.586 L 77.418,36.04 L 79.2,37.416 L 81.168,38.659 L 83.223,39.736 L 85.284,40.581 L 87.256,41.153 L 89.12,41.368 L 90.757,41.016 L 91.689,39.83 L 91.835,38.443 L 91.673,37.116 L 91.444,35.836 L 91.321,34.697 L 91.408,33.868 L 91.726,33.333 L 92.392,32.902 L 93.445,32.579 L 94.767,32.364 L 96.238,32.195 L 97.742,31.983 L 99.211,31.619 L 100.564,30.939 L 101.588,29.759 L 101.96,28.296 L 101.628,26.966 L 100.9,25.893 L 100.017,24.981 L 99.102,24.153 L 98.275,23.365 L 97.671,22.616 L 97.343,21.915 L 97.256,21.178 L 97.355,20.308 L 97.601,19.322 L 97.9,18.232 L 98.16,17.068 L 98.257,15.809 L 98.024,14.483 L 97.354,13.232 L 96.379,12.118 L 95.252,11.086 L 93.973,10.142 L 92.555,9.293 L 91.026,8.601 L 89.42,8.1 L 87.751,7.827 L 86.061,7.831 L 84.344,8.124 L 82.6,8.648 L 80.877,9.385 L 79.215,10.305 L 77.682,11.387 L 76.328,12.617 L 75.214,13.985 L 74.4,15.526 M 49.299,17.589 L 48.04,18.285 L 46.499,18.906 L 44.783,19.511 L 42.999,20.132 L 41.253,20.84 L 39.633,21.702 L 38.24,22.829 L 37.233,24.329 L 36.912,26.027 L 37.356,27.544 L 38.257,28.778 L 39.34,29.81 L 40.459,30.758 L 41.456,31.665 L 42.191,32.54 L 42.573,33.385 L 42.639,34.342 L 42.424,35.5 L 42.007,36.805 L 41.504,38.18 L 41.059,39.597 L 40.823,41.055 L 41.043,42.542 L 41.991,43.851 L 43.425,44.572 L 44.896,44.56 L 46.249,44.1 L 47.521,43.425 L 48.764,42.7 L 49.973,42.041 L 51.136,41.578 L 52.227,41.387 L 53.42,41.532 L 54.837,41.996 L 56.403,42.663 L 58.043,43.38 L 59.719,44.002 L 61.424,44.35 L 63.148,44.184 L 64.705,43.194 L 65.562,41.578 L 65.426,39.883 L 64.738,38.35 L 63.809,36.892 L 62.847,35.48 L 62.052,34.121 L 61.588,32.891 L 61.559,31.793 L 61.976,30.703 L 62.822,29.555 L 63.982,28.379 L 65.308,27.193 L 66.637,25.971 L 67.823,24.67 L 68.685,23.187 L 68.929,21.443 L 68.279,19.856 L 66.861,19.26 L 65.42,19.367 L 64.016,19.711 L 62.657,20.087 L 61.451,20.319 L 60.6,20.298 L 60.142,20.05 L 59.865,19.515 L 59.79,18.545 L 59.94,17.228 L 60.201,15.749 L 60.423,14.224 L 60.416,12.703 L 59.837,11.249 L 58.4,10.376 L 56.738,10.347 L 55.35,10.969 L 54.211,11.955 L 53.211,13.136 L 52.271,14.395 L 51.322,15.63 L 50.344,16.724 L 49.299,17.589"
   style="opacity:0.2;fill-rule:evenodd"
   id="path49" />
		<g
   id="g51">
			<path
   d="M 10.339,51.565 C 10.447,48.356 15.988,52.161 17.919,49.437 C 19.854,46.716 17.643,39.556 20.314,37.509 C 22.986,35.463 22.454,42.602 25.335,43.77 C 28.219,44.942 33.565,40.861 35.975,43.865 C 38.38,46.865 36.764,53.579 35.376,56.304 C 33.984,59.023 30.415,53.918 29.48,56.579 C 28.543,59.229 32.968,64.781 31.466,67.412 C 29.96,70.039 28.537,62.186 25.657,63.257 C 22.776,64.319 22.322,73.432 18.69,72.144 C 15.059,70.86 19,63.966 17.548,60.39 C 16.094,56.802 10.231,54.772 10.339,51.565 z "
   style="fill:#ff0000;fill-rule:evenodd"
   id="path53" />
			<linearGradient
   id="XMLID_7_"
   gradientUnits="userSpaceOnUse"
   x1="23.812"
   y1="63.070801"
   x2="23.812"
   y2="33.8354">
				<stop
   offset="0.3"
   style="stop-color:rgb(255,0,0)"
   id="stop56" />
				<stop
   offset="0.7"
   style="stop-color:rgb(255,255,255)"
   id="stop58" />
				<a:midPointStop
   offset="0.3"
   style="stop-color:#FF0000" />
				<a:midPointStop
   offset="0.5"
   style="stop-color:#FF0000" />
				<a:midPointStop
   offset="0.7"
   style="stop-color:#FFFFFF" />
			</linearGradient>
			<path
   d="M 12.745,52.038 C 12.834,49.385 17.418,52.527 19.015,50.273 C 20.615,48.025 18.787,42.101 20.996,40.41 C 23.206,38.72 22.767,44.624 25.149,45.59 C 27.534,46.559 31.957,43.182 33.95,45.668 C 35.941,48.15 34.605,53.705 33.455,55.958 C 32.305,58.203 29.351,53.977 28.578,56.182 C 27.803,58.378 31.464,62.976 30.224,65.143 C 28.976,67.318 27.8,60.822 25.417,61.709 C 23.033,62.587 22.658,70.122 19.654,69.059 C 16.65,67.997 19.911,62.296 18.709,59.33 C 17.505,56.372 12.655,54.689 12.745,52.038 z "
   style="fill:url(#XMLID_7_);fill-rule:evenodd"
   id="path60" />
			<path
   d="M 49.131,17.833 C 45.796,20.067 38.981,20.568 37.454,24.123 C 35.927,27.686 42.049,29.302 42.836,32.534 C 43.623,35.762 39.387,40.323 41.925,42.448 C 44.463,44.573 47.824,39.851 51.458,39.751 C 55.093,39.655 60.508,44.685 63.189,41.872 C 65.866,39.063 59.05,34.912 59.79,31.009 C 60.527,27.111 67.51,24.45 67.142,20.97 C 66.774,17.494 60.723,22.358 58.641,20.191 C 56.559,18.024 60.65,11.602 57.363,10.786 C 54.072,9.975 52.466,15.601 49.131,17.833 z "
   style="fill:#009700;fill-rule:evenodd"
   id="path62" />
			<linearGradient
   id="XMLID_8_"
   gradientUnits="userSpaceOnUse"
   x1="50.078098"
   y1="43.037102"
   x2="54.515202"
   y2="4.6629">
				<stop
   offset="0.2416"
   style="stop-color:rgb(0,159,0)"
   id="stop65" />
				<stop
   offset="0.78"
   style="stop-color:rgb(255,255,255)"
   id="stop67" />
				<a:midPointStop
   offset="0.2416"
   style="stop-color:#009F00" />
				<a:midPointStop
   offset="0.5"
   style="stop-color:#009F00" />
				<a:midPointStop
   offset="0.78"
   style="stop-color:#FFFFFF" />
			</linearGradient>
			<path
   d="M 49.711,19.42 C 46.929,21.285 41.246,21.7 39.975,24.666 C 38.703,27.637 43.808,28.983 44.462,31.676 C 45.119,34.369 41.587,38.173 43.702,39.946 C 45.819,41.72 48.622,37.779 51.653,37.701 C 54.683,37.618 59.199,41.815 61.432,39.466 C 63.665,37.125 57.983,33.666 58.598,30.409 C 59.214,27.157 65.036,24.94 64.73,22.04 C 64.419,19.139 59.375,23.196 57.641,21.389 C 55.906,19.583 59.315,14.226 56.574,13.546 C 53.832,12.867 52.494,17.561 49.711,19.42 z "
   style="fill:url(#XMLID_8_);fill-rule:evenodd"
   id="path69" />
			<path
   d="M 74.637,15.245 C 73.27,18.779 79.269,20.788 79.325,23.953 C 79.384,27.119 72.913,28.391 74.943,31.949 C 76.973,35.512 84.419,39.721 88.325,39.735 C 92.227,39.752 88.03,34.096 90.221,32 C 92.415,29.907 98.492,31.416 99.909,28.673 C 101.329,25.93 96.325,24.277 95.603,21.596 C 94.882,18.911 97.77,15.841 95.756,13.211 C 93.747,10.584 89.434,7.858 85.399,8.243 C 81.365,8.632 76,11.715 74.637,15.245 z "
   style="fill:#3d60ff;fill-rule:evenodd"
   id="path71" />
			<linearGradient
   id="XMLID_9_"
   gradientUnits="userSpaceOnUse"
   x1="87.218803"
   y1="30.395"
   x2="87.218803"
   y2="3.5658">
				<stop
   offset="0.25"
   style="stop-color:rgb(63,114,255)"
   id="stop74" />
				<stop
   offset="0.75"
   style="stop-color:rgb(255,255,255)"
   id="stop76" />
				<a:midPointStop
   offset="0.25"
   style="stop-color:#3F72FF" />
				<a:midPointStop
   offset="0.5"
   style="stop-color:#3F72FF" />
				<a:midPointStop
   offset="0.75"
   style="stop-color:#FFFFFF" />
			</linearGradient>
			<path
   d="M 76.058,16.268 C 74.852,19.388 80.148,21.161 80.201,23.961 C 80.256,26.754 74.537,27.877 76.331,31.022 C 78.126,34.166 84.697,37.883 88.147,37.895 C 91.594,37.907 87.887,32.915 89.826,31.067 C 91.762,29.215 97.132,30.549 98.381,28.126 C 99.633,25.707 95.212,24.248 94.579,21.878 C 93.94,19.508 96.489,16.799 94.714,14.475 C 92.937,12.15 89.13,9.747 85.564,10.088 C 81.999,10.431 77.264,13.148 76.058,16.268 z "
   style="fill:url(#XMLID_9_);fill-rule:evenodd"
   id="path78" />
		</g>
	</g>
</svg>