<?xml version="1.0" encoding="UTF-8" standalone="no"?>
<!-- Created with Inkscape (http://www.inkscape.org/) -->
<svg
   xmlns:a="http://ns.adobe.com/AdobeSVGViewerExtensions/3.0/"
   xmlns:dc="http://purl.org/dc/elements/1.1/"
   xmlns:cc="http://creativecommons.org/ns#"
   xmlns:rdf="http://www.w3.org/1999/02/22-rdf-syntax-ns#"
   xmlns:svg="http://www.w3.org/2000/svg"
   xmlns="http://www.w3.org/2000/svg"
   xmlns:xlink="http://www.w3.org/1999/xlink"
   xmlns:sodipodi="http://sodipodi.sourceforge.net/DTD/sodipodi-0.dtd"
   xmlns:inkscape="http://www.inkscape.org/namespaces/inkscape"
   version="1.0"
   width="122"
   height="122"
   viewBox="-0.122 0.464 116 122"
   id="svg2"
   xml:space="preserve"
   style="overflow:visible"
   sodipodi:version="0.32"
   inkscape:version="0.46"
   sodipodi:docname="palette.svg"
   inkscape:output_extension="org.inkscape.output.svg.inkscape"><metadata
   id="metadata48"><rdf:RDF><cc:Work
       rdf:about=""><dc:format>image/svg+xml</dc:format><dc:type
         rdf:resource="http://purl.org/dc/dcmitype/StillImage" /></cc:Work></rdf:RDF></metadata><sodipodi:namedview
   inkscape:window-height="1136"
   inkscape:window-width="1600"
   inkscape:pageshadow="2"
   inkscape:pageopacity="0.0"
   guidetolerance="10.0"
   gridtolerance="10.0"
   objecttolerance="10.0"
   borderopacity="1.0"
   bordercolor="#666666"
   pagecolor="#ffffff"
   id="base"
   showgrid="false"
   inkscape:zoom="4.3442623"
   inkscape:cx="61"
   inkscape:cy="105.20601"
   inkscape:window-x="-4"
   inkscape:window-y="-5"
   inkscape:current-layer="svg2" /><defs
   id="defs81"><inkscape:perspective
   sodipodi:type="inkscape:persp3d"
   inkscape:vp_x="0 : 61 : 1"
   inkscape:vp_y="0 : 1000 : 0"
   inkscape:vp_z="122 : 61 : 1"
   inkscape:persp3d-origin="61 : 40.666667 : 1"
   id="perspective50" />
		
		<linearGradient
   gradientUnits="userSpaceOnUse"
   id="XMLID_1_"
   y2="121.414"
   x2="34.822201"
   y1="25.107901"
   x1="39.293499">
			<stop
   offset="0.0056"
   style="stop-color:#ffae21;stop-opacity:1"
   id="stop8" />
			<stop
   offset="0.98879999"
   style="stop-color:#ffffbd;stop-opacity:1"
   id="stop10" />
			<a:midPointStop
   offset="0.0056"
   style="stop-color:#FFAE21" />
			<a:midPointStop
   offset="0.5"
   style="stop-color:#FFAE21" />
			<a:midPointStop
   offset="0.9888"
   style="stop-color:#FFFFBD" />
		</linearGradient>
		
		<linearGradient
   gradientUnits="userSpaceOnUse"
   id="XMLID_2_"
   y2="122.347"
   x2="55.1408"
   y1="26.045401"
   x1="59.611801">
			<stop
   offset="0.0056"
   style="stop-color:#ffae21;stop-opacity:1"
   id="stop15" />
			<stop
   offset="0.98879999"
   style="stop-color:#ffffbd;stop-opacity:1"
   id="stop17" />
			<a:midPointStop
   offset="0.0056"
   style="stop-color:#FFAE21" />
			<a:midPointStop
   offset="0.5"
   style="stop-color:#FFAE21" />
			<a:midPointStop
   offset="0.9888"
   style="stop-color:#FFFFBD" />
		</linearGradient>
		
		<linearGradient
   gradientUnits="userSpaceOnUse"
   id="XMLID_3_"
   y2="40.991299"
   x2="109.016"
   y1="70.556198"
   x1="5.9110999">
			<stop
   offset="0.0056"
   style="stop-color:#ffae21;stop-opacity:1"
   id="stop22" />
			<stop
   offset="0.98879999"
   style="stop-color:#ffffbd;stop-opacity:1"
   id="stop24" />
			<a:midPointStop
   offset="0.0056"
   style="stop-color:#FFAE21" />
			<a:midPointStop
   offset="0.5"
   style="stop-color:#FFAE21" />
			<a:midPointStop
   offset="0.9888"
   style="stop-color:#FFFFBD" />
		</linearGradient>
		
		<linearGradient
   gradientUnits="userSpaceOnUse"
   id="XMLID_4_"
   y2="42.115398"
   x2="107.473"
   y1="69.8853"
   x1="10.6279">
			<stop
   offset="0.0056"
   style="stop-color:#ffae21;stop-opacity:1"
   id="stop29" />
			<stop
   offset="0.98879999"
   style="stop-color:#ffffbd;stop-opacity:1"
   id="stop31" />
			<a:midPointStop
   offset="0.0056"
   style="stop-color:#FFAE21" />
			<a:midPointStop
   offset="0.5"
   style="stop-color:#FFAE21" />
			<a:midPointStop
   offset="0.9888"
   style="stop-color:#FFFFBD" />
		</linearGradient>
		
		<linearGradient
   gradientUnits="userSpaceOnUse"
   id="XMLID_5_"
   y2="114.324"
   x2="58.077099"
   y1="22.0371"
   x1="58.077099">
			<stop
   offset="0"
   style="stop-color:#744426;stop-opacity:1"
   id="stop36" />
			<stop
   offset="1"
   style="stop-color:#de972b;stop-opacity:1"
   id="stop38" />
			<a:midPointStop
   offset="0"
   style="stop-color:#744426" />
			<a:midPointStop
   offset="0.5"
   style="stop-color:#744426" />
			<a:midPointStop
   offset="1"
   style="stop-color:#DE972B" />
		</linearGradient>
		
		<linearGradient
   gradientUnits="userSpaceOnUse"
   id="XMLID_6_"
   y2="114.32"
   x2="34.992699"
   y1="22.040001"
   x1="34.992699">
			<stop
   offset="0"
   style="stop-color:#744426;stop-opacity:1"
   id="stop43" />
			<stop
   offset="1"
   style="stop-color:#de972b;stop-opacity:1"
   id="stop45" />
			<a:midPointStop
   offset="0"
   style="stop-color:#744426" />
			<a:midPointStop
   offset="0.5"
   style="stop-color:#744426" />
			<a:midPointStop
   offset="1"
   style="stop-color:#DE972B" />
		</linearGradient>
		
		
		
	<linearGradient
   inkscape:collect="always"
   xlink:href="#XMLID_6_"
   id="linearGradient2459"
   gradientUnits="userSpaceOnUse"
   x1="34.992699"
   y1="22.040001"
   x2="34.992699"
   y2="114.32"
   gradientTransform="translate(6.3441463e-2,0.4859544)" /><linearGradient
   inkscape:collect="always"
   xlink:href="#XMLID_5_"
   id="linearGradient2462"
   gradientUnits="userSpaceOnUse"
   x1="58.077099"
   y1="22.0371"
   x2="58.077099"
   y2="114.324"
   gradientTransform="translate(58.761555,15.448219)" /><linearGradient
   inkscape:collect="always"
   xlink:href="#XMLID_4_"
   id="linearGradient2465"
   gradientUnits="userSpaceOnUse"
   x1="10.6279"
   y1="69.8853"
   x2="107.473"
   y2="42.115398"
   gradientTransform="translate(6.3441463e-2,0.4859544)" /><linearGradient
   inkscape:collect="always"
   xlink:href="#XMLID_3_"
   id="linearGradient2468"
   gradientUnits="userSpaceOnUse"
   x1="5.9110999"
   y1="70.556198"
   x2="109.016"
   y2="40.991299"
   gradientTransform="translate(6.3441463e-2,0.4859544)" /><linearGradient
   inkscape:collect="always"
   xlink:href="#XMLID_2_"
   id="linearGradient2471"
   gradientUnits="userSpaceOnUse"
   x1="59.611801"
   y1="26.045401"
   x2="55.1408"
   y2="122.347"
   gradientTransform="translate(6.3441463e-2,0.4859544)" /><linearGradient
   inkscape:collect="always"
   xlink:href="#XMLID_1_"
   id="linearGradient2474"
   gradientUnits="userSpaceOnUse"
   x1="39.293499"
   y1="25.107901"
   x2="34.822201"
   y2="121.414"
   gradientTransform="translate(6.3441463e-2,0.4859544)" /><linearGradient
   inkscape:collect="always"
   xlink:href="#XMLID_5_"
   id="linearGradient2502"
   gradientUnits="userSpaceOnUse"
   gradientTransform="translate(-2.9434638,1.0650497)"
   x1="58.077099"
   y1="22.0371"
   x2="58.077099"
   y2="114.324" /></defs>
	<path
   style="fill:none"
   id="path5"
   d="M 33.198441,100.00895 C 37.311441,100.58995 42.003441,97.139954 44.246441,92.133954 C 43.993441,88.264954 41.865441,85.320954 38.465441,84.843954 C 34.671441,84.312954 30.415441,87.005954 27.797441,91.199954 C 27.336441,95.771954 29.447441,99.482954 33.198441,100.00895 z" /><path
   style="fill:url(#linearGradient2474)"
   id="path12"
   d="M 38.466441,84.843954 C 41.866441,85.321954 43.994441,88.264954 44.247441,92.133954 C 44.472441,91.631954 44.681441,91.119954 44.853441,90.588954 C 46.743441,84.759954 44.596441,79.485954 40.068441,78.850954 C 35.540441,78.216954 30.304441,82.452954 28.414441,88.276954 C 28.090441,89.275954 27.893441,90.255954 27.797441,91.200954 C 30.416441,87.005954 34.671441,84.312954 38.466441,84.843954 z" /><path
   style="fill:url(#linearGradient2471)"
   id="path19"
   d="M 103.15144,9.8099544 C 101.97244,8.8379544 100.74144,7.9579544 99.473441,7.1409544 C 99.962441,7.5049544 100.45144,7.8689544 100.92444,8.2589544 C 128.19444,30.745954 102.92344,78.753954 96.873441,84.133954 C 90.824441,89.520954 88.473441,90.856954 81.874441,91.870954 C 75.272441,92.883954 66.127441,85.220954 58.963441,91.555954 C 51.796441,97.888954 52.534441,104.23595 49.166441,109.15095 C 47.022441,112.27695 42.818441,113.52795 38.949441,114.28795 C 30.678441,113.63395 23.068441,110.74995 16.928441,105.43995 C -2.8035585,88.384954 -0.032558537,52.645954 23.099441,25.884954 C 24.244441,24.560954 25.424441,23.296954 26.621441,22.067954 C 24.490441,24.095954 22.416441,26.245954 20.429441,28.545954 C -4.1575585,56.990954 -7.1035585,94.977954 13.870441,113.10495 C 20.396441,118.74895 28.485441,121.81395 37.276441,122.50895 C 41.389441,121.70095 45.857441,120.37095 48.136441,117.04895 C 51.716441,111.82395 50.932441,105.07795 58.549441,98.346954 C 66.164441,91.613954 75.885441,99.758954 82.902441,98.682954 C 89.917441,97.604954 92.416441,96.183954 98.845441,90.457954 C 105.27544,84.739954 132.13644,33.711954 103.15144,9.8099544 z" /><path
   style="fill:url(#linearGradient2468)"
   id="path26"
   d="M 16.928441,105.43895 C 23.068441,110.74895 30.678441,113.63195 38.949441,114.28695 C 42.819441,113.52695 47.022441,112.27595 49.166441,109.14995 C 52.534441,104.23495 51.796441,97.887954 58.963441,91.554954 C 66.127441,85.219954 75.273441,92.882954 81.874441,91.869954 C 88.473441,90.854954 90.824441,89.518954 96.873441,84.132954 C 102.92344,78.752954 128.19344,30.744954 100.92444,8.2579544 C 100.45044,7.8679544 99.962441,7.5039544 99.473441,7.1399544 C 79.602441,-5.6790456 49.410441,0.3819544 26.621441,22.067954 C 25.423441,23.296954 24.243441,24.560954 23.099441,25.884954 C -0.032558537,52.645954 -2.8035585,88.384954 16.928441,105.43895 z M 26.078441,94.861954 C 26.503441,93.551954 27.095441,92.325954 27.797441,91.199954 C 27.892441,90.254954 28.089441,89.274954 28.414441,88.275954 C 30.304441,82.451954 35.540441,78.215954 40.068441,78.849954 C 44.596441,79.485954 46.743441,84.759954 44.853441,90.588954 C 44.681441,91.119954 44.472441,91.631954 44.247441,92.133954 C 44.352441,93.739954 44.142441,95.502954 43.552441,97.320954 C 41.540441,103.51295 35.974441,108.01295 31.164441,107.33395 C 26.352441,106.65795 24.066441,101.05795 26.078441,94.861954 z" /><path
   style="fill:url(#linearGradient2465)"
   id="path33"
   d="M 16.928441,105.54595 C 23.068441,110.79095 30.678441,113.63995 38.949441,114.28595 C 42.819441,113.53495 47.022441,112.29995 49.166441,109.21195 C 52.534441,104.35595 51.796441,98.085954 58.963441,91.829954 C 66.127441,85.570954 75.273441,93.141954 81.874441,92.141954 C 88.473441,91.138954 90.824441,89.819954 96.873441,84.496954 C 102.92344,79.182954 128.19344,31.754954 100.92444,9.5399544 C 100.45044,9.1549544 99.962441,8.7949544 99.473441,8.4359544 C 79.602441,-4.2280456 49.410441,1.7589544 26.621441,23.182954 C 25.423441,24.396954 24.243441,25.644954 23.099441,26.953954 C -0.032558537,53.390954 -2.8035585,88.697954 16.928441,105.54595 z M 26.078441,95.097954 C 26.503441,93.803954 27.095441,92.591954 27.797441,91.479954 C 27.892441,90.545954 28.089441,89.578954 28.414441,88.590954 C 30.304441,82.836954 35.540441,78.652954 40.068441,79.278954 C 44.595441,79.906954 46.743441,85.116954 44.853441,90.874954 C 44.681441,91.399954 44.472441,91.905954 44.247441,92.400954 C 44.352441,93.987954 44.142441,95.729954 43.552441,97.524954 C 41.540441,103.64195 35.974441,108.08795 31.164441,107.41695 C 26.352441,106.74995 24.066441,101.21795 26.078441,95.097954 z" /><path
   style="fill:url(#linearGradient2459);fill-rule:evenodd"
   d="M 40.0625 82.1875 C 35.04633 82.05424 29.897251 86.421874 27.96875 92.875 C 25.76875 100.257 28.571498 107.66775 34.1875 109.34375 C 39.8015 111.01975 46.169998 106.34675 48.375 98.96875 C 50.577 91.58875 47.798499 84.205249 42.1875 82.53125 C 41.484875 82.3215 40.779096 82.206537 40.0625 82.1875 z M 41.28125 84.96875 C 41.831824 84.984986 42.36075 85.049875 42.875 85.21875 C 46.984002 86.569748 48.15675 92.50425 45.46875 98.40625 C 42.780748 104.31125 37.237 108.00725 33.125 106.65625 C 29.013 105.30625 27.84725 99.404 30.53125 93.5 C 32.88675 88.333999 37.427231 84.855096 41.28125 84.96875 z "
   transform="translate(-3.122,0.464)"
   id="path47" /><path
   style="opacity:0.2;fill-rule:evenodd"
   id="path49"
   d="M 11.212441,55.506954 L 12.293441,56.650954 L 13.505441,57.702954 L 14.742441,58.721954 L 15.877441,59.757954 L 16.794441,60.792954 L 17.395441,61.844954 L 17.654441,63.056954 L 17.621441,64.563954 L 17.391441,66.278954 L 17.100441,68.077954 L 16.901441,69.859954 L 16.982441,71.582954 L 17.635441,73.169954 L 19.163441,74.245954 L 21.044441,74.291954 L 22.469441,73.245954 L 23.439441,71.750954 L 24.203441,70.068954 L 24.893441,68.357954 L 25.574441,66.840954 L 26.254441,65.784954 L 26.817441,65.352954 L 27.188441,65.344954 L 27.689441,65.671954 L 28.348441,66.471954 L 29.022441,67.539954 L 29.701441,68.643954 L 30.513441,69.653954 L 31.940441,70.214954 L 33.176441,69.047954 L 33.614441,67.483954 L 33.473441,65.888954 L 33.032441,64.301954 L 32.448441,62.738954 L 31.865441,61.221954 L 31.407441,59.853954 L 31.198441,58.743954 L 31.276441,58.031954 L 31.351441,57.924954 L 31.825441,58.073954 L 32.625441,58.462954 L 33.603441,58.927954 L 34.764441,59.250954 L 36.097441,59.019954 L 37.056441,57.950954 L 37.663441,56.558954 L 38.185441,55.000954 L 38.623441,53.251954 L 38.923441,51.386954 L 39.041441,49.487954 L 38.913441,47.614954 L 38.464441,45.857954 L 37.575441,44.278954 L 36.214441,43.196954 L 34.609441,42.810954 L 32.991441,42.898954 L 31.412441,43.226954 L 29.904441,43.623954 L 28.523441,43.938954 L 27.375441,44.050954 L 26.559441,43.896954 L 25.969441,43.466954 L 25.428441,42.625954 L 24.954441,41.469954 L 24.518441,40.180954 L 24.052441,38.929954 L 23.354441,37.769954 L 22.026441,37.110954 L 20.489441,37.756954 L 19.424441,39.094954 L 18.898441,40.718954 L 18.689441,42.475954 L 18.633441,44.285954 L 18.619441,46.063954 L 18.535441,47.683954 L 18.300441,49.009954 L 17.898441,49.891954 L 17.376441,50.341954 L 16.620441,50.531954 L 15.572441,50.531954 L 14.363441,50.393954 L 13.104441,50.271954 L 11.800441,50.352954 L 10.574441,51.073954 L 10.102441,52.597954 L 10.402441,54.179954 L 11.212441,55.506954 M 74.463441,16.011954 L 74.207441,17.660954 L 74.658441,19.181954 L 75.507441,20.445954 L 76.523441,21.534954 L 77.525441,22.529954 L 78.370441,23.465954 L 78.910441,24.306954 L 79.089441,25.048954 L 78.929441,25.728954 L 78.412441,26.457954 L 77.555441,27.265954 L 76.524441,28.131954 L 75.488441,29.109954 L 74.634441,30.318954 L 74.307441,31.856954 L 74.834441,33.509954 L 75.977441,35.071954 L 77.481441,36.525954 L 79.263441,37.901954 L 81.231441,39.144954 L 83.286441,40.221954 L 85.347441,41.066954 L 87.319441,41.638954 L 89.183441,41.853954 L 90.820441,41.501954 L 91.752441,40.315954 L 91.898441,38.928954 L 91.736441,37.601954 L 91.507441,36.321954 L 91.384441,35.182954 L 91.471441,34.353954 L 91.789441,33.818954 L 92.455441,33.387954 L 93.508441,33.064954 L 94.830441,32.849954 L 96.301441,32.680954 L 97.805441,32.468954 L 99.274441,32.104954 L 100.62744,31.424954 L 101.65144,30.244954 L 102.02344,28.781954 L 101.69144,27.451954 L 100.96344,26.378954 L 100.08044,25.466954 L 99.165441,24.638954 L 98.338441,23.850954 L 97.734441,23.101954 L 97.406441,22.400954 L 97.319441,21.663954 L 97.418441,20.793954 L 97.664441,19.807954 L 97.963441,18.717954 L 98.223441,17.553954 L 98.320441,16.294954 L 98.087441,14.968954 L 97.417441,13.717954 L 96.442441,12.603954 L 95.315441,11.571954 L 94.036441,10.627954 L 92.618441,9.7789544 L 91.089441,9.0869544 L 89.483441,8.5859544 L 87.814441,8.3129544 L 86.124441,8.3169544 L 84.407441,8.6099544 L 82.663441,9.1339544 L 80.940441,9.8709544 L 79.278441,10.790954 L 77.745441,11.872954 L 76.391441,13.102954 L 75.277441,14.470954 L 74.463441,16.011954 M 49.362441,18.074954 L 48.103441,18.770954 L 46.562441,19.391954 L 44.846441,19.996954 L 43.062441,20.617954 L 41.316441,21.325954 L 39.696441,22.187954 L 38.303441,23.314954 L 37.296441,24.814954 L 36.975441,26.512954 L 37.419441,28.029954 L 38.320441,29.263954 L 39.403441,30.295954 L 40.522441,31.243954 L 41.519441,32.150954 L 42.254441,33.025954 L 42.636441,33.870954 L 42.702441,34.827954 L 42.487441,35.985954 L 42.070441,37.290954 L 41.567441,38.665954 L 41.122441,40.082954 L 40.886441,41.540954 L 41.106441,43.027954 L 42.054441,44.336954 L 43.488441,45.057954 L 44.959441,45.045954 L 46.312441,44.585954 L 47.584441,43.910954 L 48.827441,43.185954 L 50.036441,42.526954 L 51.199441,42.063954 L 52.290441,41.872954 L 53.483441,42.017954 L 54.900441,42.481954 L 56.466441,43.148954 L 58.106441,43.865954 L 59.782441,44.487954 L 61.487441,44.835954 L 63.211441,44.669954 L 64.768441,43.679954 L 65.625441,42.063954 L 65.489441,40.368954 L 64.801441,38.835954 L 63.872441,37.377954 L 62.910441,35.965954 L 62.115441,34.606954 L 61.651441,33.376954 L 61.622441,32.278954 L 62.039441,31.188954 L 62.885441,30.040954 L 64.045441,28.864954 L 65.371441,27.678954 L 66.700441,26.456954 L 67.886441,25.155954 L 68.748441,23.672954 L 68.992441,21.928954 L 68.342441,20.341954 L 66.924441,19.745954 L 65.483441,19.852954 L 64.079441,20.196954 L 62.720441,20.572954 L 61.514441,20.804954 L 60.663441,20.783954 L 60.205441,20.535954 L 59.928441,20.000954 L 59.853441,19.030954 L 60.003441,17.713954 L 60.264441,16.234954 L 60.486441,14.709954 L 60.479441,13.188954 L 59.900441,11.734954 L 58.463441,10.861954 L 56.801441,10.832954 L 55.413441,11.454954 L 54.274441,12.440954 L 53.274441,13.621954 L 52.334441,14.880954 L 51.385441,16.115954 L 50.407441,17.209954 L 49.362441,18.074954" /><g
   id="g51"
   transform="translate(6.3441463e-2,0.4859544)">
			<path
   style="fill:#ff0000;fill-rule:evenodd"
   id="path53"
   d="M 10.339,51.565 C 10.447,48.356 15.988,52.161 17.919,49.437 C 19.854,46.716 17.643,39.556 20.314,37.509 C 22.986,35.463 22.454,42.602 25.335,43.77 C 28.219,44.942 33.565,40.861 35.975,43.865 C 38.38,46.865 36.764,53.579 35.376,56.304 C 33.984,59.023 30.415,53.918 29.48,56.579 C 28.543,59.229 32.968,64.781 31.466,67.412 C 29.96,70.039 28.537,62.186 25.657,63.257 C 22.776,64.319 22.322,73.432 18.69,72.144 C 15.059,70.86 19,63.966 17.548,60.39 C 16.094,56.802 10.231,54.772 10.339,51.565 z" />
			<linearGradient
   gradientUnits="userSpaceOnUse"
   id="XMLID_7_"
   y2="33.8354"
   x2="23.812"
   y1="63.070801"
   x1="23.812">
				<stop
   offset="0.30000001"
   style="stop-color:#ff0000;stop-opacity:1"
   id="stop56" />
				<stop
   offset="0.69999999"
   style="stop-color:#ffffff;stop-opacity:1"
   id="stop58" />
				<a:midPointStop
   offset="0.3"
   style="stop-color:#FF0000" />
				<a:midPointStop
   offset="0.5"
   style="stop-color:#FF0000" />
				<a:midPointStop
   offset="0.7"
   style="stop-color:#FFFFFF" />
			</linearGradient>
			<path
   style="fill:url(#XMLID_7_);fill-rule:evenodd"
   id="path60"
   d="M 12.745,52.038 C 12.834,49.385 17.418,52.527 19.015,50.273 C 20.615,48.025 18.787,42.101 20.996,40.41 C 23.206,38.72 22.767,44.624 25.149,45.59 C 27.534,46.559 31.957,43.182 33.95,45.668 C 35.941,48.15 34.605,53.705 33.455,55.958 C 32.305,58.203 29.351,53.977 28.578,56.182 C 27.803,58.378 31.464,62.976 30.224,65.143 C 28.976,67.318 27.8,60.822 25.417,61.709 C 23.033,62.587 22.658,70.122 19.654,69.059 C 16.65,67.997 19.911,62.296 18.709,59.33 C 17.505,56.372 12.655,54.689 12.745,52.038 z" />
			<path
   style="fill:#009700;fill-rule:evenodd"
   id="path62"
   d="M 49.131,17.833 C 45.796,20.067 38.981,20.568 37.454,24.123 C 35.927,27.686 42.049,29.302 42.836,32.534 C 43.623,35.762 39.387,40.323 41.925,42.448 C 44.463,44.573 47.824,39.851 51.458,39.751 C 55.093,39.655 60.508,44.685 63.189,41.872 C 65.866,39.063 59.05,34.912 59.79,31.009 C 60.527,27.111 67.51,24.45 67.142,20.97 C 66.774,17.494 60.723,22.358 58.641,20.191 C 56.559,18.024 60.65,11.602 57.363,10.786 C 54.072,9.975 52.466,15.601 49.131,17.833 z" />
			<linearGradient
   gradientUnits="userSpaceOnUse"
   id="XMLID_8_"
   y2="4.6629"
   x2="54.515202"
   y1="43.037102"
   x1="50.078098">
				<stop
   offset="0.24160001"
   style="stop-color:#009f00;stop-opacity:1"
   id="stop65" />
				<stop
   offset="0.77999997"
   style="stop-color:#ffffff;stop-opacity:1"
   id="stop67" />
				<a:midPointStop
   offset="0.2416"
   style="stop-color:#009F00" />
				<a:midPointStop
   offset="0.5"
   style="stop-color:#009F00" />
				<a:midPointStop
   offset="0.78"
   style="stop-color:#FFFFFF" />
			</linearGradient>
			<path
   style="fill:url(#XMLID_8_);fill-rule:evenodd"
   id="path69"
   d="M 49.711,19.42 C 46.929,21.285 41.246,21.7 39.975,24.666 C 38.703,27.637 43.808,28.983 44.462,31.676 C 45.119,34.369 41.587,38.173 43.702,39.946 C 45.819,41.72 48.622,37.779 51.653,37.701 C 54.683,37.618 59.199,41.815 61.432,39.466 C 63.665,37.125 57.983,33.666 58.598,30.409 C 59.214,27.157 65.036,24.94 64.73,22.04 C 64.419,19.139 59.375,23.196 57.641,21.389 C 55.906,19.583 59.315,14.226 56.574,13.546 C 53.832,12.867 52.494,17.561 49.711,19.42 z" />
			<path
   style="fill:#3d60ff;fill-rule:evenodd"
   id="path71"
   d="M 74.637,15.245 C 73.27,18.779 79.269,20.788 79.325,23.953 C 79.384,27.119 72.913,28.391 74.943,31.949 C 76.973,35.512 84.419,39.721 88.325,39.735 C 92.227,39.752 88.03,34.096 90.221,32 C 92.415,29.907 98.492,31.416 99.909,28.673 C 101.329,25.93 96.325,24.277 95.603,21.596 C 94.882,18.911 97.77,15.841 95.756,13.211 C 93.747,10.584 89.434,7.858 85.399,8.243 C 81.365,8.632 76,11.715 74.637,15.245 z" />
			<linearGradient
   gradientUnits="userSpaceOnUse"
   id="XMLID_9_"
   y2="3.5658"
   x2="87.218803"
   y1="30.395"
   x1="87.218803">
				<stop
   offset="0.25"
   style="stop-color:#3f72ff;stop-opacity:1"
   id="stop74" />
				<stop
   offset="0.75"
   style="stop-color:#ffffff;stop-opacity:1"
   id="stop76" />
				<a:midPointStop
   offset="0.25"
   style="stop-color:#3F72FF" />
				<a:midPointStop
   offset="0.5"
   style="stop-color:#3F72FF" />
				<a:midPointStop
   offset="0.75"
   style="stop-color:#FFFFFF" />
			</linearGradient>
			<path
   style="fill:url(#XMLID_9_);fill-rule:evenodd"
   id="path78"
   d="M 76.058,16.268 C 74.852,19.388 80.148,21.161 80.201,23.961 C 80.256,26.754 74.537,27.877 76.331,31.022 C 78.126,34.166 84.697,37.883 88.147,37.895 C 91.594,37.907 87.887,32.915 89.826,31.067 C 91.762,29.215 97.132,30.549 98.381,28.126 C 99.633,25.707 95.212,24.248 94.579,21.878 C 93.94,19.508 96.489,16.799 94.714,14.475 C 92.937,12.15 89.13,9.747 85.564,10.088 C 81.999,10.431 77.264,13.148 76.058,16.268 z" />
		</g>
<path
   style="fill:url(#linearGradient2502);fill-rule:evenodd"
   d="M 74.169984,0.5855807 C 56.021401,1.1009417 35.910608,10.865583 20.544981,28.648081 C -4.0420208,57.092081 -6.9925158,95.080592 13.982481,113.21059 C 20.507483,118.85359 28.596731,121.92183 37.388731,122.61684 C 41.500731,121.80884 45.984731,120.47409 48.263731,117.14809 C 51.844731,111.92809 51.054981,105.19658 58.669981,98.460582 C 66.286984,91.724582 75.996734,99.880332 83.013734,98.804332 C 90.027734,97.723332 92.521234,96.311582 98.951234,90.585582 C 105.38124,84.863582 132.24374,33.83133 103.26374,9.9293307 C 95.241734,3.3154557 85.059134,0.2763637 74.169984,0.5855807 z M 73.544984,4.5543307 C 83.741824,4.2362077 93.180734,7.0232067 100.54499,13.148081 C 127.15999,35.294082 100.96124,82.780832 94.826234,88.116832 C 88.681234,93.453832 86.320484,94.780332 79.732484,95.804332 C 73.145484,96.826332 64.223234,89.272332 56.951231,95.554332 C 49.682231,101.83933 50.253981,108.12684 46.794981,112.99184 C 44.590981,116.08584 40.379731,117.32059 36.513731,118.08559 C 28.299729,117.46059 20.813233,114.61909 14.826231,109.39809 C -4.4167708,92.602092 -0.84827085,57.283081 22.763731,30.773081 C 37.519357,14.203083 56.550241,5.0845357 73.544984,4.5543307 z"
   id="path40" /></svg>