<?xml version="1.0" encoding="UTF-8" standalone="no"?>
<!-- Created with Inkscape (http://www.inkscape.org/) -->
<svg
   xmlns:dc="http://purl.org/dc/elements/1.1/"
   xmlns:cc="http://web.resource.org/cc/"
   xmlns:rdf="http://www.w3.org/1999/02/22-rdf-syntax-ns#"
   xmlns:svg="http://www.w3.org/2000/svg"
   xmlns="http://www.w3.org/2000/svg"
   xmlns:sodipodi="http://sodipodi.sourceforge.net/DTD/sodipodi-0.dtd"
   xmlns:inkscape="http://www.inkscape.org/namespaces/inkscape"
   width="680"
   height="680"
   id="svg2273"
   sodipodi:version="0.32"
   inkscape:version="0.45.1"
   sodipodi:docbase="/home/ciobi/cpp/Mp3Utils/MP3Diags/src/images"
   sodipodi:docname="patterns.svg"
   inkscape:output_extension="org.inkscape.output.svg.inkscape"
   version="1.0">
  <defs
     id="defs2275" />
  <sodipodi:namedview
     id="base"
     pagecolor="#ffffff"
     bordercolor="#666666"
     borderopacity="1.0"
     gridtolerance="10000"
     guidetolerance="10"
     objecttolerance="10"
     inkscape:pageopacity="0.0"
     inkscape:pageshadow="2"
     inkscape:zoom="0.7"
     inkscape:cx="375"
     inkscape:cy="405.71429"
     inkscape:document-units="px"
     inkscape:current-layer="layer1"
     inkscape:window-width="1600"
     inkscape:window-height="1098"
     inkscape:window-x="0"
     inkscape:window-y="33"
     showgrid="false"
     showguides="true"
     height="680px"
     width="680px" />
  <metadata
     id="metadata2278">
    <rdf:RDF>
      <cc:Work
         rdf:about="">
        <dc:format>image/svg+xml</dc:format>
        <dc:type
           rdf:resource="http://purl.org/dc/dcmitype/StillImage" />
      </cc:Work>
    </rdf:RDF>
  </metadata>
  <g
     inkscape:label="Layer 1"
     inkscape:groupmode="layer"
     id="layer1"
     transform="translate(-47.400002,-191.39075)">
    <rect
       style="fill:#ffffff;fill-opacity:1;stroke:#ffffff;stroke-width:11.6702919;stroke-linecap:square;stroke-linejoin:miter;stroke-miterlimit:4;stroke-dasharray:none;stroke-dashoffset:0;stroke-opacity:1"
       id="rect4135"
       width="659.04401"
       height="381.90115"
       x="58.235142"
       y="350.08307" />
    <path
       transform="scale(0.8939565,1.1186227)"
       style="font-size:246.03437805px;font-style:normal;font-weight:normal;fill:#000000;fill-opacity:1;stroke:none;stroke-width:1px;stroke-linecap:butt;stroke-linejoin:miter;stroke-opacity:1;font-family:Bitstream Vera Sans"
       d="M 90.557479,435.89597 C 90.557464,423.3221 93.720989,412.63018 100.04806,403.8202 C 106.37509,395.01055 115.54531,390.60564 127.55874,390.60547 C 138.61101,390.60564 147.74118,394.57006 154.94929,402.49873 C 162.23733,410.34764 165.88139,421.92054 165.88148,437.21745 C 165.88139,452.11418 162.19729,463.60698 154.82915,471.6959 C 147.54096,479.70492 138.53092,483.70938 127.79901,483.70929 C 117.14709,483.70938 108.25719,479.74496 101.12927,471.81603 C 94.081391,463.88729 90.557464,451.91395 90.557479,435.89597 M 128.15941,405.50208 C 122.79338,405.50224 118.30838,407.82483 114.70441,412.46985 C 111.18044,417.11518 109.41848,425.64468 109.41851,438.05838 C 109.41848,449.3511 111.22049,457.31998 114.82454,461.96505 C 118.42852,466.53024 122.87347,468.81278 128.15941,468.81268 C 133.60543,468.81278 138.09043,466.49019 141.61442,461.84491 C 145.21837,457.19984 147.02038,448.71038 147.02045,436.37651 C 147.02038,425.00397 145.21837,417.03509 141.61442,412.46985 C 138.01034,407.82483 133.52534,405.50224 128.15941,405.50208 M 128.27955,576.21245 L 224.62699,390.60547 L 242.16655,390.60547 L 146.17951,576.21245 L 128.27955,576.21245 M 204.44449,528.39913 C 204.44436,515.74507 207.60788,505.05316 213.93507,496.32336 C 220.26198,487.51362 229.47224,483.10871 241.56588,483.10862 C 252.61803,483.10871 261.74821,487.07313 268.95643,495.00189 C 276.24436,502.85071 279.88842,514.4236 279.88862,529.72061 C 279.88842,544.61724 276.20431,556.11005 268.8363,564.19906 C 261.54798,572.20799 252.4979,576.21245 241.68602,576.21245 C 231.03398,576.21245 222.14408,572.24803 215.01628,564.31919 C 207.96828,556.31027 204.44436,544.33693 204.44449,528.39913 M 242.16655,498.00524 C 236.72032,498.00531 232.19528,500.3279 228.59141,504.97301 C 225.06734,509.61825 223.30537,518.14775 223.30552,530.56154 C 223.30537,541.77408 225.10738,549.70291 228.71155,554.34807 C 232.31541,558.99326 236.76036,561.31585 242.04642,561.31584 C 247.57241,561.31585 252.09745,558.99326 255.62156,554.34807 C 259.22539,549.70291 261.0274,541.21345 261.02759,528.87967 C 261.0274,517.50704 259.22539,509.53816 255.62156,504.97301 C 252.01736,500.3279 247.53237,498.00531 242.16655,498.00524 M 311.12345,569.72522 L 311.12345,442.14294 L 330.58516,442.14294 L 330.58516,460.28317 C 339.95556,446.26766 353.49064,439.25985 371.19044,439.25972 C 378.87893,439.25985 385.92678,440.66142 392.33402,443.46441 C 398.82115,446.18757 403.66655,449.79159 406.87023,454.27647 C 410.07369,458.76158 412.31618,464.08752 413.59773,470.25429 C 414.3985,474.25885 414.79895,481.26666 414.79907,491.27773 L 414.79907,569.72522 L 393.17496,569.72522 L 393.17496,492.11867 C 393.17486,483.30893 392.33392,476.74162 390.65214,472.4167 C 388.97017,468.01189 385.96683,464.52801 381.64209,461.96505 C 377.39728,459.32221 372.3917,458.00074 366.62535,458.00062 C 357.41501,458.00074 349.44613,460.92399 342.71869,466.7704 C 336.07123,472.61702 332.74753,483.70938 332.74757,500.04752 L 332.74757,569.72522 L 311.12345,569.72522 M 454.20301,569.72522 L 454.20301,545.09776 L 478.83048,545.09776 L 478.83048,569.72522 L 454.20301,569.72522 M 514.39012,435.89597 C 514.39011,423.3221 517.55363,412.63018 523.8807,403.8202 C 530.20773,395.01055 539.37795,390.60564 551.39138,390.60547 C 562.44365,390.60564 571.57382,394.57006 578.78193,402.49873 C 586.06997,410.34764 589.71403,421.92054 589.71412,437.21745 C 589.71403,452.11418 586.02993,463.60698 578.6618,471.6959 C 571.3736,479.70492 562.36356,483.70938 551.63165,483.70929 C 540.97973,483.70938 532.08983,479.74496 524.96191,471.81603 C 517.91403,463.88729 514.39011,451.91395 514.39012,435.89597 M 551.99205,405.50208 C 546.62602,405.50224 542.14103,407.82483 538.53705,412.46985 C 535.01308,417.11518 533.25112,425.64468 533.25115,438.05838 C 533.25112,449.3511 535.05313,457.31998 538.65718,461.96505 C 542.26116,466.53024 546.70611,468.81278 551.99205,468.81268 C 557.43807,468.81278 561.92307,466.49019 565.44706,461.84491 C 569.05101,457.19984 570.85302,448.71038 570.85309,436.37651 C 570.85302,425.00397 569.05101,417.03509 565.44706,412.46985 C 561.84298,407.82483 557.35798,405.50224 551.99205,405.50208 M 552.11219,576.21245 L 648.45963,390.60547 L 665.99919,390.60547 L 570.01215,576.21245 L 552.11219,576.21245 M 628.27713,528.39913 C 628.277,515.74507 631.44052,505.05316 637.76771,496.32336 C 644.09462,487.51362 653.30489,483.10871 665.39852,483.10862 C 676.45067,483.10871 685.58085,487.07313 692.78907,495.00189 C 700.077,502.85071 703.72106,514.4236 703.72126,529.72061 C 703.72106,544.61724 700.03695,556.11005 692.66894,564.19906 C 685.38062,572.20799 676.33054,576.21245 665.51866,576.21245 C 654.86663,576.21245 645.97672,572.24803 638.84892,564.31919 C 631.80093,556.31027 628.277,544.33693 628.27713,528.39913 M 665.99919,498.00524 C 660.55296,498.00531 656.02792,500.3279 652.42406,504.97301 C 648.89998,509.61825 647.13801,518.14775 647.13816,530.56154 C 647.13801,541.77408 648.94002,549.70291 652.54419,554.34807 C 656.14805,558.99326 660.59301,561.31585 665.87906,561.31584 C 671.40505,561.31585 675.93009,558.99326 679.4542,554.34807 C 683.05804,549.70291 684.86004,541.21345 684.86023,528.87967 C 684.86004,517.50704 683.05804,509.53816 679.4542,504.97301 C 675.85,500.3279 671.36501,498.00531 665.99919,498.00524 M 782.16878,550.38365 L 785.29226,569.48495 C 779.20541,570.76638 773.75934,571.40709 768.95404,571.4071 C 761.10524,571.40709 755.01846,570.16571 750.69367,567.68294 C 746.36882,565.20018 743.32543,561.95656 741.56349,557.95209 C 739.80151,553.86755 738.92052,545.33805 738.92054,532.36355 L 738.92054,458.9617 L 723.06286,458.9617 L 723.06286,442.14294 L 738.92054,442.14294 L 738.92054,410.5477 L 760.42453,397.57324 L 760.42453,442.14294 L 782.16878,442.14294 L 782.16878,458.9617 L 760.42453,458.9617 L 760.42453,533.56489 C 760.42448,539.7318 760.78489,543.69622 761.50573,545.45816 C 762.30658,547.22014 763.54796,548.62171 765.22988,549.66285 C 766.9918,550.70403 769.47457,551.22461 772.67819,551.22459 C 775.08081,551.22461 778.24434,550.94429 782.16878,550.38365"
       id="text3191" />
  </g>
</svg>
